<?xml version="1.0" encoding="utf-8"?>
<!DOCTYPE svg PUBLIC "-//W3C//DTD SVG 20010904//EN" "http://www.w3.org/TR/2001/REC-SVG-20010904/DTD/svg10.dtd">
<svg version="1.0" xmlns="http://www.w3.org/2000/svg" width="600pt" height="600pt" viewBox="0 0 600 600" style="" preserveAspectRatio="xMidYMid meet">
<g fill="#FFC444FF" stroke="#FFC444FF">
<path d="M 248.133 185.750 C 245.499 188.420 245.269 189.628 240.197 227.500 C 237.325 248.950 233.423 277.975 231.528 292.000 C 229.633 306.025 225.595 336.175 222.556 359.000 C 219.517 381.825 216.778 401.963 216.470 403.750 L 215.909 407.000 221.705 407.012 C 224.892 407.018 235.020 406.486 244.211 405.828 L 260.922 404.632 261.428 402.066 C 261.707 400.655 262.407 395.927 262.984 391.561 C 264.104 383.081 265.847 380.000 269.523 380.000 C 271.373 380.000 272.011 379.021 273.409 374.038 C 274.329 370.759 276.388 364.909 277.984 361.038 C 280.342 355.321 280.600 354.000 279.358 354.000 C 278.517 354.000 268.980 353.521 258.164 352.935 C 243.658 352.149 238.220 351.509 237.432 350.493 C 236.108 348.786 239.024 325.576 240.783 323.817 C 241.664 322.936 249.329 322.950 272.561 323.872 L 303.178 325.088 309.787 319.294 C 314.990 314.732 315.981 313.442 314.448 313.225 C 313.376 313.074 297.086 312.374 278.246 311.671 C 255.922 310.837 243.601 310.001 242.871 309.271 C 241.476 307.876 244.505 285.152 246.336 283.269 C 247.283 282.295 258.216 282.356 298.787 283.562 L 350.041 285.085 355.142 280.792 C 357.947 278.432 363.311 273.028 367.061 268.785 C 390.656 242.083 396.115 221.778 388.849 187.750 L 387.834 183.000 319.340 183.000 L 250.846 183.000 248.133 185.750 M 340.142 205.161 C 345.174 206.668 351.499 212.134 354.255 217.357 C 357.331 223.188 357.295 233.630 354.175 240.500 C 351.320 246.787 344.981 253.385 338.500 256.815 C 331.779 260.372 319.656 260.619 313.500 257.324 C 304.572 252.545 300.537 245.593 300.545 235.000 C 300.549 228.848 301.022 226.602 303.176 222.500 C 307.524 214.217 315.425 207.553 324.000 204.935 C 327.847 203.761 335.842 203.872 340.142 205.161 "/></g>
<g fill="#FFD05EFF" stroke="#FFD05EFF">
<path d="M 388.330 185.250 C 394.185 209.344 392.865 227.528 383.995 244.967 C 379.241 254.316 371.276 264.724 361.059 274.941 L 351.294 284.706 363.897 285.349 C 370.829 285.703 380.775 286.001 386.000 286.011 C 391.225 286.022 396.162 286.450 396.972 286.962 C 398.267 287.780 398.254 289.418 396.866 300.516 C 395.920 308.086 394.730 313.692 393.894 314.519 C 392.709 315.692 386.826 315.684 354.657 314.467 L 316.813 313.036 310.412 318.690 C 306.892 321.800 304.145 324.478 304.308 324.641 C 304.714 325.048 322.730 325.942 359.826 327.398 C 393.490 328.719 393.505 328.722 392.539 334.000 C 392.287 335.375 391.559 340.875 390.921 346.223 C 390.282 351.571 389.206 356.704 388.529 357.630 C 387.377 359.205 384.430 359.173 342.399 357.125 C 317.705 355.922 293.798 354.665 289.273 354.333 L 281.045 353.729 278.936 358.614 C 276.320 364.674 271.637 378.990 272.134 379.411 C 272.335 379.582 289.365 380.687 309.977 381.866 C 344.040 383.814 347.630 384.185 349.387 385.943 C 351.272 387.828 351.279 388.185 349.660 400.325 C 348.747 407.172 348.000 413.331 348.000 414.011 C 348.000 414.968 351.351 415.103 362.750 414.606 C 390.801 413.384 398.936 412.323 397.541 410.067 C 397.223 409.552 397.393 407.188 397.919 404.815 C 398.445 402.442 400.466 388.350 402.410 373.500 C 404.355 358.650 410.472 312.075 416.005 270.000 C 421.538 227.925 426.123 192.041 426.194 190.257 C 426.269 188.373 425.563 186.174 424.507 185.007 C 422.820 183.144 421.442 183.000 405.237 183.000 L 387.783 183.000 388.330 185.250 "/></g>
<g fill="#FC77B0FF" stroke="#FC77B0FF">
<path d="M 482.000 240.885 C 477.382 242.387 470.534 246.214 466.256 249.682 C 462.053 253.091 462.027 253.152 463.532 256.062 C 464.368 257.678 464.606 259.000 464.061 259.000 C 463.516 259.000 462.559 258.044 461.933 256.875 L 460.796 254.750 458.328 257.217 C 455.955 259.591 455.614 261.745 449.430 313.509 C 445.893 343.112 443.136 367.469 443.303 367.636 C 443.470 367.804 445.833 364.137 448.554 359.488 C 451.274 354.840 453.864 351.028 454.309 351.018 C 454.754 351.008 454.859 350.581 454.543 350.069 C 454.226 349.557 454.425 348.856 454.984 348.510 C 455.543 348.165 456.000 348.557 456.000 349.382 C 456.000 350.207 455.609 351.124 455.130 351.420 C 454.652 351.715 452.969 354.554 451.390 357.729 C 449.812 360.903 447.954 363.860 447.260 364.300 C 446.567 364.740 446.000 365.570 446.000 366.145 C 446.000 366.721 445.173 368.386 444.163 369.846 C 442.786 371.834 441.768 377.391 440.101 392.000 C 438.878 402.725 437.620 413.012 437.306 414.860 L 436.736 418.220 440.868 417.610 C 443.141 417.275 446.800 416.735 449.000 416.412 C 451.576 416.034 453.000 416.212 453.000 416.912 C 453.000 417.510 452.663 417.921 452.250 417.825 C 451.838 417.729 448.427 418.010 444.672 418.450 C 439.052 419.108 437.695 419.626 437.003 421.375 C 435.784 424.458 430.672 470.005 431.457 470.790 C 432.576 471.909 442.840 465.947 446.009 462.337 C 449.767 458.057 453.624 450.523 454.530 445.690 C 454.912 443.656 454.651 437.497 453.951 432.004 C 452.933 424.011 452.927 421.186 453.923 417.861 C 455.680 411.999 462.928 405.463 474.140 399.631 C 493.867 389.370 502.610 382.277 506.793 373.141 C 509.568 367.080 511.224 353.000 509.163 353.000 C 508.558 353.000 508.295 352.395 508.579 351.656 C 508.862 350.916 508.125 346.572 506.941 342.002 C 503.636 329.255 504.337 324.514 512.189 306.500 C 519.766 289.115 522.000 281.114 522.000 271.364 C 522.000 261.981 519.796 255.954 514.388 250.546 C 507.900 244.058 500.107 240.568 491.500 240.295 C 487.650 240.172 483.375 240.438 482.000 240.885 "/></g>
<g fill="#FEA1ABFF" stroke="#FEA1ABFF">
<path d="M 148.131 131.541 C 138.145 133.708 129.844 138.133 122.072 145.432 C 118.226 149.044 115.293 152.000 115.554 152.000 C 115.815 152.000 114.882 153.733 113.480 155.851 C 112.031 158.041 110.233 163.107 109.310 167.601 C 106.080 183.328 110.879 199.040 122.449 210.627 C 143.293 231.498 177.147 230.185 197.643 207.712 C 204.048 200.689 206.582 195.522 208.167 186.250 C 212.415 161.407 194.992 136.921 169.174 131.449 C 161.025 129.722 156.420 129.742 148.131 131.541 M 182.000 183.132 C 182.000 195.555 181.756 197.658 179.984 200.526 C 176.654 205.914 172.980 207.000 158.084 207.000 L 144.971 207.000 141.235 203.579 L 137.500 200.159 137.178 185.103 L 136.857 170.047 154.678 169.749 C 164.480 169.585 174.638 169.349 177.250 169.225 L 182.000 169.000 182.000 183.132 M 168.980 146.250 C 171.402 147.488 174.742 150.207 176.402 152.293 C 178.866 155.391 179.427 157.040 179.460 161.293 C 179.498 166.225 179.357 166.517 176.785 166.813 C 174.509 167.075 173.973 166.671 173.474 164.313 C 171.710 155.989 166.746 151.011 160.200 151.004 C 153.705 150.996 147.590 156.012 146.254 162.440 C 145.293 167.066 142.917 169.006 140.584 167.070 C 137.317 164.358 138.903 157.457 144.174 151.454 C 150.648 144.081 160.634 141.986 168.980 146.250 "/></g>
<g fill="#A980F8FF" stroke="#A980F8FF">
<path d="M 161.500 293.713 C 168.395 295.372 161.554 297.986 150.297 297.994 C 142.979 298.000 137.578 296.492 138.658 294.744 C 139.948 292.657 130.142 295.280 122.111 299.171 C 102.488 308.677 88.501 330.380 90.384 348.399 C 91.609 360.119 98.001 370.055 109.271 377.755 C 115.921 382.299 116.232 382.403 117.590 380.547 C 119.565 377.845 119.364 376.344 116.531 372.629 C 110.989 365.364 109.404 355.991 112.653 349.700 C 113.562 347.940 116.788 343.575 119.823 340.000 C 122.858 336.425 126.525 330.895 127.973 327.711 L 130.606 321.923 133.850 326.440 C 142.356 338.285 143.329 345.886 137.765 357.024 C 132.389 367.784 130.892 380.005 134.575 383.062 C 135.589 383.904 137.218 383.756 141.082 382.473 C 147.621 380.301 153.047 380.985 160.959 384.979 C 168.105 388.587 171.051 388.756 174.381 385.750 C 176.864 383.508 176.868 383.476 175.446 377.000 C 173.841 369.692 174.027 368.159 178.057 355.500 C 179.633 350.550 181.170 345.276 181.473 343.779 L 182.023 341.059 186.762 344.064 C 192.239 347.539 199.789 350.000 204.970 350.000 C 209.918 350.000 217.019 346.199 219.751 342.088 C 224.397 335.098 226.174 322.824 224.181 311.500 C 223.588 308.134 223.056 307.451 220.826 307.192 C 218.673 306.942 217.614 307.693 215.183 311.192 C 208.673 320.565 201.737 324.787 197.864 321.735 C 196.964 321.026 194.129 316.989 191.564 312.764 C 188.999 308.539 184.851 303.278 182.347 301.074 C 177.130 296.482 168.630 292.947 163.212 293.116 C 161.095 293.182 160.359 293.439 161.500 293.713 "/></g>
<g fill="#D7DEE8FF" stroke="#D7DEE8FF">
<path d="M 298.328 153.959 C 273.863 154.485 273.089 154.564 270.730 156.781 C 268.095 159.260 266.481 165.192 265.436 176.250 L 264.798 183.000 332.500 183.000 L 400.202 183.000 399.557 176.250 C 399.202 172.538 398.195 165.788 397.319 161.250 L 395.726 153.000 359.613 153.209 C 339.751 153.324 312.173 153.661 298.328 153.959 "/></g>
<g fill="#FDC360FF" stroke="#FDC360FF">
<path d="M 388.000 413.013 C 384.425 413.425 374.086 414.085 365.025 414.479 C 349.366 415.159 348.439 415.314 346.322 417.597 C 344.591 419.465 343.069 420.000 339.485 420.000 C 335.134 420.000 311.127 418.496 300.737 417.572 C 297.963 417.325 296.213 417.535 296.546 418.074 C 296.878 418.611 293.627 419.037 288.809 419.088 C 284.239 419.136 278.383 419.473 275.795 419.838 L 271.090 420.500 273.512 426.443 C 276.036 432.637 282.618 442.949 284.445 443.572 C 286.169 444.160 377.012 451.003 383.076 451.001 C 391.678 450.999 392.349 449.835 394.895 430.500 C 397.371 411.706 397.359 411.962 395.750 412.131 C 395.063 412.204 391.575 412.600 388.000 413.013 "/></g>
<g fill="#8288BAFF" stroke="#8288BAFF">
<path d="M 412.750 131.749 C 400.238 131.908 390.017 132.142 390.037 132.269 C 390.058 132.396 391.338 136.956 392.883 142.402 L 395.692 152.304 422.323 152.084 L 448.954 151.863 451.477 154.386 C 452.888 155.797 454.000 158.062 454.000 159.525 C 454.000 160.963 447.500 216.896 439.556 283.820 C 431.612 350.744 424.902 407.525 424.645 410.000 C 424.388 412.475 423.913 416.413 423.589 418.750 C 421.832 431.431 421.778 430.765 424.525 430.240 C 427.113 429.745 428.254 428.588 428.705 426.000 C 428.849 425.175 436.659 360.150 446.061 281.500 C 461.088 155.788 462.991 138.200 461.797 136.014 C 459.566 131.929 456.424 131.010 445.500 131.245 C 440.000 131.364 425.263 131.590 412.750 131.749 "/></g>
<g fill="#272650FF" stroke="#272650FF">
<path d="M 128.153 327.344 C 126.924 330.309 124.249 334.689 122.209 337.076 C 120.169 339.464 118.988 341.118 119.585 340.752 C 120.207 340.370 121.488 341.668 122.585 343.793 C 124.209 346.938 124.503 349.700 124.521 362.000 L 124.543 376.500 127.021 376.227 C 129.464 375.958 129.454 375.995 126.379 378.727 C 123.831 380.991 123.131 382.545 122.565 387.186 C 121.961 392.141 122.137 393.137 123.936 394.936 C 125.071 396.071 126.653 397.000 127.451 397.000 C 128.511 397.000 128.869 398.146 128.780 401.250 C 128.713 403.588 128.945 407.300 129.296 409.500 C 129.647 411.700 130.222 418.675 130.574 425.000 C 130.925 431.325 131.346 436.725 131.509 437.000 C 131.671 437.275 132.083 441.550 132.423 446.500 C 133.324 459.597 134.895 479.229 136.501 497.470 C 137.504 508.866 137.596 513.631 136.823 514.109 C 135.887 514.688 137.156 514.688 143.750 514.110 C 144.652 514.031 145.000 511.424 145.002 504.750 C 145.003 499.663 145.676 486.500 146.497 475.500 C 147.319 464.500 148.081 453.250 148.190 450.500 C 148.386 445.555 147.290 427.834 146.490 423.000 C 146.262 421.625 145.803 416.000 145.471 410.500 C 145.138 405.000 144.640 399.713 144.365 398.750 C 143.967 397.358 144.544 396.960 147.183 396.805 C 154.140 396.397 155.544 396.241 157.000 395.714 C 157.825 395.415 160.144 394.942 162.154 394.664 C 166.346 394.082 167.262 395.611 166.295 401.573 C 165.796 404.645 165.985 405.016 168.119 405.152 C 174.959 405.590 174.500 406.084 174.500 398.283 C 174.500 393.881 174.983 390.625 175.750 389.855 C 176.438 389.165 177.000 387.532 177.000 386.227 L 177.000 383.855 174.365 385.927 C 170.794 388.736 168.012 388.539 160.959 384.979 C 153.047 380.985 147.621 380.301 141.082 382.473 C 137.218 383.756 135.589 383.904 134.575 383.062 C 130.892 380.005 132.389 367.784 137.765 357.024 C 142.495 347.556 142.564 342.559 138.089 333.666 C 136.383 330.275 133.952 326.252 132.687 324.727 L 130.387 321.953 128.153 327.344 "/></g>
<g fill="#272650FF" stroke="#272650FF">
<path d="M 459.850 117.167 C 459.621 125.779 459.109 130.464 458.370 130.710 C 457.733 130.922 458.496 132.343 460.120 133.966 C 461.704 135.550 463.000 137.514 463.000 138.330 C 463.000 139.616 429.294 423.998 428.667 428.000 C 428.538 428.825 427.322 429.651 425.966 429.836 C 422.528 430.305 422.185 430.838 421.670 436.500 C 421.421 439.250 421.055 442.175 420.858 443.000 C 420.479 444.588 421.072 444.664 424.855 443.514 C 427.108 442.830 427.183 442.965 426.591 446.649 C 426.251 448.767 424.426 463.652 422.535 479.726 C 420.644 495.800 418.613 509.854 418.023 510.957 C 417.433 512.060 415.724 513.628 414.225 514.441 C 411.934 515.684 411.819 515.923 413.500 515.938 C 416.713 515.967 423.739 512.356 424.980 510.037 C 426.109 507.928 427.710 496.320 432.503 455.500 C 433.859 443.950 436.096 425.050 437.473 413.500 C 438.851 401.950 440.191 390.700 440.451 388.500 C 442.159 374.068 450.484 303.873 452.548 286.500 C 455.966 257.729 455.561 259.424 460.063 255.055 L 464.014 251.220 461.536 250.598 C 460.173 250.256 458.588 249.099 458.015 248.028 C 457.004 246.140 457.102 246.125 461.142 247.550 C 466.696 249.510 467.522 248.437 462.100 246.307 L 457.845 244.636 458.529 236.568 C 458.905 232.131 459.444 228.119 459.726 227.653 C 461.586 224.577 484.232 212.181 494.803 208.451 C 501.616 206.047 504.358 204.281 499.500 205.425 C 493.052 206.944 479.436 213.146 469.950 218.884 C 458.929 225.551 459.426 225.767 460.974 215.000 C 461.488 211.425 462.623 202.200 463.497 194.500 C 464.371 186.800 466.206 171.455 467.576 160.401 C 470.390 137.675 470.196 136.015 464.392 133.247 L 460.738 131.505 461.233 117.752 C 461.505 110.189 461.384 104.000 460.964 104.000 C 460.544 104.000 460.043 109.925 459.850 117.167 "/></g>
<g fill="#F9986BFF" stroke="#F9986BFF">
<path d="M 271.553 381.723 C 269.948 385.904 268.664 403.909 269.565 409.595 L 270.500 415.500 301.500 417.678 C 341.068 420.457 343.514 420.486 345.796 418.204 C 347.136 416.864 348.054 412.784 349.416 402.103 C 351.196 388.155 351.195 387.751 349.371 385.941 C 347.709 384.292 343.619 383.855 312.847 382.042 C 270.710 379.559 272.378 379.572 271.553 381.723 "/></g>
<g fill="#434B8CFF" stroke="#434B8CFF">
<path d="M 326.000 133.258 C 289.130 133.889 271.751 134.535 270.090 135.337 C 264.960 137.813 264.096 140.442 261.496 161.514 C 260.139 172.506 259.023 181.838 259.015 182.250 C 259.007 182.663 260.277 183.000 261.837 183.000 L 264.674 183.000 265.891 171.750 C 267.126 160.331 268.369 156.943 272.047 154.975 C 273.429 154.235 293.845 153.685 334.923 153.281 L 395.751 152.682 394.801 149.091 C 394.279 147.116 392.966 142.463 391.883 138.750 L 389.915 132.000 384.708 132.171 C 381.843 132.265 355.425 132.754 326.000 133.258 "/></g>
<g fill="#A980F8FF" stroke="#A980F8FF">
<path d="M 461.634 108.654 C 461.285 111.198 461.000 117.437 461.000 122.518 L 461.000 131.757 464.077 133.032 C 468.720 134.955 470.370 138.142 469.635 143.768 C 468.949 149.023 460.000 224.112 460.000 224.613 C 460.000 224.787 464.116 222.422 469.146 219.357 C 478.926 213.399 487.293 209.380 495.750 206.579 C 498.638 205.622 501.000 204.595 501.000 204.297 C 501.000 203.998 498.946 200.875 496.434 197.356 C 487.755 185.193 487.655 184.724 488.471 160.081 C 489.249 136.603 488.557 129.568 484.594 120.630 C 481.158 112.882 473.735 106.875 464.884 104.678 C 462.403 104.063 462.235 104.268 461.634 108.654 "/></g>
<g fill="#D7DEE8FF" stroke="#D7DEE8FF">
<path d="M 280.317 92.750 C 279.499 96.232 279.151 96.521 275.454 96.796 C 271.824 97.066 271.372 96.824 270.323 94.046 C 269.170 90.991 265.840 89.832 264.490 92.016 C 264.144 92.575 263.524 92.824 263.110 92.568 C 262.110 91.950 256.000 95.705 256.000 96.938 C 256.000 97.470 256.509 99.023 257.131 100.388 C 258.130 102.580 257.925 103.167 255.381 105.404 C 251.877 108.484 251.895 108.482 249.230 106.000 C 246.097 103.081 244.841 103.478 240.853 108.651 C 236.912 113.760 236.847 116.154 240.604 117.865 C 242.977 118.947 243.000 119.065 241.519 122.609 C 240.683 124.608 240.000 126.390 240.000 126.569 C 240.000 126.748 238.220 126.823 236.044 126.736 C 233.868 126.650 231.775 126.892 231.392 127.275 C 231.009 127.658 230.651 130.788 230.598 134.230 L 230.500 140.488 234.250 141.420 C 237.745 142.289 238.000 142.606 238.000 146.078 C 238.000 149.271 237.503 150.096 234.515 151.859 C 230.750 154.080 230.752 154.009 234.172 161.750 C 236.149 166.224 237.317 166.724 241.424 164.853 C 243.618 163.853 244.197 164.013 245.937 166.103 C 248.337 168.984 248.527 171.318 246.500 173.000 C 244.303 174.823 244.653 176.812 247.747 180.090 C 249.804 182.269 251.409 183.000 254.140 183.000 C 258.340 183.000 258.918 182.107 259.864 174.161 C 260.486 168.937 260.413 168.732 256.413 164.564 C 249.913 157.791 247.571 151.996 247.152 141.651 C 246.809 133.192 246.950 132.487 250.333 125.651 C 252.279 121.718 254.745 117.600 255.813 116.500 C 258.894 113.327 261.939 111.000 263.011 111.000 C 263.555 111.000 264.000 110.621 264.000 110.158 C 264.000 109.154 270.728 106.976 277.000 105.950 C 293.029 103.328 310.662 114.792 314.377 130.250 C 314.976 132.743 315.458 133.000 319.519 133.000 C 322.434 133.000 324.002 132.563 324.006 131.750 C 324.010 131.063 325.360 129.733 327.006 128.797 C 330.546 126.782 330.656 125.738 327.972 119.669 C 325.481 114.038 325.071 113.770 321.188 115.235 C 318.321 116.317 317.893 116.186 315.603 113.521 L 313.123 110.636 315.062 107.913 C 317.817 104.043 317.484 102.913 312.503 99.250 C 307.200 95.350 306.185 95.261 303.538 98.467 C 301.654 100.747 301.226 100.845 297.868 99.759 C 294.460 98.657 294.244 98.339 294.368 94.604 C 294.517 90.122 293.149 89.287 285.349 89.100 C 281.350 89.004 281.167 89.137 280.317 92.750 "/></g>
<g fill="#FC77B0FF" stroke="#FC77B0FF">
<path d="M 153.161 117.084 C 145.284 118.096 138.178 120.364 130.855 124.205 L 125.211 127.166 128.855 130.592 L 132.500 134.018 129.500 136.195 C 125.707 138.948 118.147 146.841 116.767 149.488 C 116.190 150.594 118.610 148.743 122.145 145.372 C 132.242 135.746 145.905 130.067 159.090 130.017 C 165.920 129.992 178.748 133.603 184.753 137.242 C 196.311 144.247 205.675 157.284 207.922 169.500 C 209.166 176.259 209.560 186.214 208.546 185.266 C 208.095 184.845 207.953 185.748 208.229 187.274 C 208.506 188.799 208.342 190.289 207.866 190.583 C 207.390 190.877 207.000 191.922 207.000 192.904 C 207.000 193.886 205.165 197.529 202.923 200.998 L 198.845 207.307 201.991 210.403 L 205.136 213.500 207.996 210.125 C 217.179 199.284 222.092 181.753 220.027 167.193 C 218.758 158.243 216.771 152.422 212.492 145.122 C 200.916 125.370 176.925 114.033 153.161 117.084 "/></g>
<g fill="#D7DEE8FF" stroke="#D7DEE8FF">
<path d="M 232.594 450.000 C 232.218 452.838 231.689 457.487 231.420 460.330 C 231.150 463.174 230.499 468.200 229.972 471.500 C 228.402 481.342 228.722 485.575 231.250 488.424 C 233.519 490.980 234.355 491.165 249.500 492.463 C 256.902 493.097 267.498 494.250 267.737 494.446 C 267.868 494.554 268.205 488.534 268.487 481.071 C 269.001 467.468 269.305 464.038 270.870 454.220 C 271.778 448.521 271.418 447.876 267.131 447.511 C 265.684 447.388 261.575 447.009 258.000 446.669 C 254.425 446.329 247.400 445.778 242.389 445.445 L 233.279 444.839 232.594 450.000 "/></g>
<g fill="#7073A0FF" stroke="#7073A0FF">
<path d="M 423.500 443.945 C 422.400 444.388 421.263 444.617 420.974 444.454 C 420.685 444.292 418.967 456.769 417.156 472.182 C 415.345 487.594 413.382 501.262 412.793 502.554 C 412.205 503.846 410.285 505.586 408.527 506.420 C 405.609 507.805 402.721 507.682 375.415 505.014 C 358.962 503.406 343.025 501.854 340.000 501.565 C 336.975 501.276 323.025 499.920 309.000 498.551 C 294.975 497.183 280.013 495.762 275.750 495.394 L 268.000 494.724 268.000 498.362 C 268.000 500.363 268.485 502.000 269.078 502.000 C 269.671 502.000 301.721 505.163 340.299 509.030 C 415.371 516.554 414.303 516.519 417.570 511.533 C 418.449 510.192 420.305 498.212 422.465 479.937 C 424.379 463.746 426.187 448.813 426.484 446.750 C 427.046 442.844 426.803 442.616 423.500 443.945 "/></g>
<g fill="#FF9085FF" stroke="#FF9085FF">
<path d="M 108.113 145.460 C 101.825 155.835 99.726 162.526 99.205 173.855 C 98.630 186.351 99.877 192.832 104.813 203.000 C 116.123 226.299 144.209 239.277 171.000 233.584 C 177.574 232.187 188.303 227.946 189.270 226.362 C 189.560 225.888 188.477 223.925 186.864 222.000 C 184.443 219.110 183.766 218.762 182.981 220.000 C 182.458 220.825 182.024 221.206 182.015 220.846 C 182.007 220.486 179.781 221.035 177.069 222.066 C 146.735 233.592 113.616 215.106 108.871 184.000 C 107.320 173.832 108.950 164.414 114.027 154.204 L 117.858 146.500 115.593 143.555 C 114.347 141.935 112.902 140.467 112.382 140.294 C 111.861 140.120 109.941 142.445 108.113 145.460 "/></g>
<g fill="#A980F8FF" stroke="#A980F8FF">
<path d="M 494.948 208.401 C 482.934 212.639 461.916 224.372 460.103 227.852 C 459.631 228.758 458.934 232.907 458.554 237.071 L 457.863 244.643 462.109 246.311 C 467.525 248.438 466.690 249.508 461.142 247.550 C 457.102 246.125 457.004 246.140 458.015 248.028 C 459.956 251.654 463.155 251.411 469.549 247.152 C 478.148 241.425 484.507 239.598 493.485 240.277 L 500.826 240.833 503.077 235.666 C 506.174 228.558 506.645 221.285 504.515 213.419 C 503.556 209.876 502.462 206.785 502.083 206.552 C 501.705 206.318 498.494 207.150 494.948 208.401 "/></g>
<g fill="#FCAC49FF" stroke="#FCAC49FF">
<path d="M 263.000 420.538 C 262.175 420.706 250.813 421.393 237.750 422.065 C 224.688 422.737 213.968 423.560 213.930 423.893 C 212.627 435.109 213.250 437.481 217.742 438.405 C 219.259 438.717 232.875 439.877 248.000 440.983 C 263.125 442.089 277.430 443.251 279.789 443.564 L 284.079 444.134 279.715 437.761 C 277.315 434.256 274.290 428.825 272.992 425.694 C 270.822 420.458 270.385 420.009 267.566 420.116 C 265.880 420.180 263.825 420.370 263.000 420.538 "/></g>
<g fill="#893976FF" stroke="#893976FF">
<path d="M 425.736 186.500 C 426.545 188.022 422.773 219.178 409.969 316.743 C 400.713 387.277 392.851 445.894 392.499 447.004 C 391.585 449.882 386.491 452.267 382.927 451.484 C 380.281 450.903 380.000 451.089 380.000 453.421 C 380.000 455.884 380.250 456.000 385.566 456.000 C 392.642 456.000 394.676 454.873 395.975 450.234 C 396.550 448.180 404.452 389.617 413.536 320.094 C 430.948 186.832 430.698 189.469 426.285 185.830 C 424.859 184.654 424.795 184.731 425.736 186.500 "/></g>
<g fill="#D7DEE8FF" stroke="#D7DEE8FF">
<path d="M 373.889 93.888 C 372.597 97.596 368.547 98.300 367.500 95.000 C 366.740 92.605 364.919 92.473 360.950 94.526 C 357.925 96.090 357.119 98.337 359.136 99.584 C 359.889 100.050 359.490 100.876 357.952 102.036 C 356.209 103.351 355.212 103.525 353.948 102.736 C 351.749 101.362 349.513 102.288 347.461 105.420 C 345.943 107.735 345.939 108.081 347.402 109.545 C 350.270 112.413 348.945 116.000 345.018 116.000 C 342.718 116.000 342.144 116.528 341.625 119.125 C 340.643 124.034 340.842 124.744 343.381 125.381 C 346.709 126.216 347.573 130.825 344.626 132.015 C 343.007 132.669 343.691 132.888 347.500 132.936 L 352.500 132.999 352.514 124.641 C 352.527 116.441 352.600 116.194 356.354 111.612 C 361.134 105.780 368.299 102.000 374.577 102.000 C 380.553 102.000 389.596 106.700 392.879 111.513 C 395.723 115.681 397.297 123.076 396.443 128.250 L 395.824 132.000 401.412 132.000 C 406.954 132.000 407.000 131.975 407.000 129.000 C 407.000 127.350 407.027 125.663 407.059 125.250 C 407.091 124.838 406.079 124.257 404.809 123.959 C 401.584 123.203 401.230 119.444 404.160 117.071 C 406.427 115.236 406.437 115.141 404.750 111.602 C 403.012 107.958 401.266 107.134 399.349 109.051 C 398.614 109.786 397.821 109.375 396.712 107.683 C 395.338 105.587 395.314 104.996 396.532 103.258 C 397.761 101.503 397.722 101.075 396.218 99.832 C 391.504 95.934 391.284 95.859 389.576 97.566 C 388.500 98.642 387.096 98.990 385.470 98.582 C 383.534 98.096 383.000 97.317 383.000 94.981 C 383.000 92.495 382.599 92.000 380.582 92.000 C 379.252 92.000 377.446 91.725 376.569 91.388 C 375.421 90.948 374.670 91.649 373.889 93.888 "/></g>
<g fill="#A980F8FF" stroke="#A980F8FF">
<path d="M 449.326 104.045 C 440.909 105.708 432.400 112.277 426.236 121.870 L 422.785 127.240 425.143 129.480 C 427.427 131.651 427.983 131.706 443.149 131.241 L 458.798 130.762 459.399 127.756 C 460.263 123.437 460.141 104.016 459.250 103.918 C 458.838 103.873 457.375 103.697 456.000 103.528 C 454.625 103.359 451.622 103.591 449.326 104.045 "/></g>
<g fill="#FEC045FF" stroke="#FEC045FF">
<path d="M 241.000 406.031 C 236.875 406.420 229.511 406.797 224.637 406.869 L 215.773 407.000 216.206 409.947 C 216.443 411.568 216.331 412.704 215.955 412.472 C 215.191 412.000 213.784 422.117 214.512 422.846 C 214.967 423.301 250.996 421.511 264.250 420.376 C 270.991 419.798 272.364 418.764 269.800 416.200 C 269.140 415.540 267.395 415.000 265.922 415.000 C 262.450 415.000 260.800 412.914 260.800 408.527 L 260.800 405.000 254.650 405.162 C 251.268 405.251 245.125 405.642 241.000 406.031 "/></g>
<g fill="#272650FF" stroke="#272650FF">
<path d="M 165.852 433.145 C 167.680 436.840 168.575 440.487 168.851 445.373 L 169.245 452.336 166.577 449.668 C 163.516 446.606 161.034 446.203 160.926 448.750 C 160.825 451.122 160.271 454.175 158.362 462.872 C 156.340 472.091 157.123 484.000 160.430 494.284 C 164.300 506.322 164.766 507.000 169.161 507.000 C 172.279 507.000 173.000 506.640 173.000 505.082 C 173.000 503.988 171.575 502.282 169.687 501.116 C 166.585 499.198 164.975 496.974 163.608 492.713 C 163.292 491.729 163.949 486.104 165.066 480.213 C 167.935 465.090 167.588 465.832 171.444 466.555 C 175.577 467.331 175.559 467.409 175.890 446.818 L 176.140 431.196 171.318 430.162 C 168.666 429.593 165.765 428.847 164.871 428.504 C 163.584 428.010 163.788 428.974 165.852 433.145 "/></g>
<g fill="#272650FF" stroke="#272650FF">
<path d="M 214.623 438.310 C 217.088 441.622 221.176 444.000 224.404 444.000 C 227.630 444.000 227.643 444.399 225.080 464.500 C 221.375 493.558 221.392 491.546 224.827 494.981 C 226.488 496.641 228.893 498.034 230.173 498.077 C 231.453 498.119 233.175 498.284 234.000 498.444 C 234.825 498.604 238.875 499.030 243.000 499.390 C 250.778 500.069 255.819 500.603 263.500 501.561 L 268.000 502.123 268.000 498.252 L 268.000 494.381 253.250 493.120 C 233.956 491.470 231.607 490.832 229.740 486.741 C 228.195 483.358 228.324 481.536 232.104 453.250 C 233.197 445.069 233.231 445.000 236.103 445.000 C 238.458 445.000 239.000 444.570 239.000 442.704 C 239.000 440.753 238.437 440.379 235.250 440.212 C 223.828 439.612 217.238 438.661 215.123 437.308 L 212.747 435.788 214.623 438.310 "/></g>
<g fill="#FCAC49FF" stroke="#FCAC49FF">
<path d="M 336.302 232.635 C 331.521 236.434 326.369 236.770 321.706 233.589 C 318.568 231.448 316.837 231.017 311.706 231.100 C 301.515 231.263 300.490 231.826 300.557 237.219 C 300.611 241.574 303.526 250.000 304.978 250.000 C 305.348 250.000 306.742 248.830 308.076 247.401 C 311.220 244.031 318.386 240.428 323.713 239.539 C 330.609 238.389 338.046 241.109 342.813 246.525 L 346.788 251.041 349.552 247.770 C 352.610 244.152 355.435 238.231 356.478 233.250 L 357.159 230.000 348.329 230.047 C 340.417 230.089 339.168 230.358 336.302 232.635 "/></g>
<g fill="#F8914FFF" stroke="#F8914FFF">
<path d="M 323.994 204.934 C 316.271 207.283 307.397 214.478 303.917 221.210 C 302.863 223.251 302.000 225.163 302.000 225.460 C 302.000 225.757 305.325 226.000 309.389 226.000 L 316.777 226.000 317.415 222.601 C 318.825 215.086 326.735 210.044 334.033 212.009 C 338.550 213.225 340.802 215.965 341.658 221.286 L 342.267 225.071 349.133 224.835 C 356.751 224.573 356.982 224.286 354.447 218.218 C 349.986 207.539 335.789 201.346 323.994 204.934 "/></g>
<g fill="#893976FF" stroke="#893976FF">
<path d="M 125.375 402.807 C 125.733 406.488 126.681 414.900 127.482 421.500 C 129.358 436.969 129.370 451.204 127.514 462.500 C 124.779 479.144 125.812 488.799 132.064 505.010 C 133.761 509.410 135.986 513.457 137.009 514.005 C 139.244 515.201 141.045 515.315 139.198 514.143 C 137.788 513.249 135.318 488.589 132.423 446.500 C 132.083 441.550 131.671 437.275 131.509 437.000 C 131.346 436.725 130.925 431.325 130.574 425.000 C 130.222 418.675 129.647 411.700 129.296 409.500 C 128.945 407.300 128.711 403.634 128.776 401.353 C 128.874 397.936 128.527 397.110 126.809 396.660 C 124.803 396.136 124.748 396.371 125.375 402.807 "/></g>
<g fill="#893976FF" stroke="#893976FF">
<path d="M 111.667 139.145 C 101.441 149.936 96.098 162.280 95.283 177.001 C 94.361 193.650 99.501 207.413 111.000 219.080 C 129.756 238.110 159.323 242.950 184.500 231.111 C 197.076 225.198 208.267 214.300 214.602 201.798 C 218.184 194.729 217.452 194.577 213.664 201.603 C 197.209 232.128 159.116 243.862 128.686 227.780 C 119.602 222.979 109.072 212.076 104.673 202.916 C 100.079 193.351 98.818 187.604 98.846 176.371 C 98.880 162.827 102.864 151.681 111.918 139.800 L 115.500 135.100 111.667 139.145 "/></g>
<g fill="#272650FF" stroke="#272650FF">
<path d="M 296.180 447.250 C 296.527 449.690 295.975 449.606 324.000 451.476 C 329.225 451.824 335.300 452.293 337.500 452.518 C 339.700 452.742 348.025 453.404 356.000 453.988 C 363.975 454.572 372.638 455.266 375.250 455.530 C 379.781 455.989 380.000 455.896 380.000 453.506 C 380.000 451.237 379.597 450.992 375.750 450.918 C 373.413 450.873 370.375 450.677 369.000 450.482 C 366.687 450.155 348.031 448.647 331.500 447.450 C 327.650 447.171 319.325 446.510 313.000 445.980 C 296.061 444.562 295.801 444.581 296.180 447.250 "/></g>
<g fill="#893976FF" stroke="#893976FF">
<path d="M 167.646 467.659 C 165.885 473.582 163.186 491.006 163.710 493.066 C 164.641 496.729 166.589 499.326 169.847 501.251 L 172.781 502.983 173.353 499.742 C 173.667 497.959 174.232 489.863 174.607 481.750 C 175.175 469.477 175.055 466.998 173.895 466.986 C 173.128 466.979 171.531 466.713 170.346 466.395 C 168.804 465.981 168.037 466.340 167.646 467.659 "/></g>
<g fill="#F8914FFF" stroke="#F8914FFF">
<path d="M 263.187 390.697 C 262.565 394.463 261.755 400.786 261.387 404.749 C 260.605 413.162 261.538 415.000 266.591 415.000 L 269.937 415.000 269.381 407.250 C 269.075 402.988 269.232 396.238 269.731 392.250 C 270.362 387.206 270.313 384.996 269.569 384.986 C 268.981 384.979 267.559 384.720 266.409 384.411 C 264.507 383.901 264.215 384.470 263.187 390.697 "/></g>
<g fill="#5A285BFF" stroke="#5A285BFF">
<path d="M 144.434 399.250 C 144.694 400.488 145.127 404.650 145.398 408.500 C 146.011 417.229 147.192 432.187 147.507 435.220 C 147.638 436.474 147.802 439.488 147.872 441.917 C 147.943 444.346 148.228 446.105 148.506 445.827 C 149.700 444.634 151.956 420.939 151.442 415.000 C 150.663 405.992 150.149 399.728 150.068 398.250 C 150.029 397.541 148.693 397.000 146.981 397.000 C 144.377 397.000 144.027 397.309 144.434 399.250 "/></g>
<g fill="#4D2353FF" stroke="#4D2353FF">
<path d="M 150.587 396.860 C 150.294 397.333 150.247 399.920 150.481 402.610 C 150.716 405.299 151.009 409.638 151.133 412.250 C 151.256 414.863 151.675 417.000 152.063 417.000 C 152.450 417.000 153.796 419.534 155.053 422.631 C 157.293 428.151 161.270 433.500 163.133 433.500 C 163.650 433.500 164.482 434.162 164.982 434.971 C 165.482 435.780 166.170 436.163 166.511 435.822 C 166.852 435.481 165.775 432.794 164.117 429.851 C 162.336 426.691 161.001 422.748 160.854 420.220 C 160.649 416.693 160.201 415.838 158.310 415.363 C 157.047 415.046 156.281 414.354 156.608 413.826 C 156.934 413.298 156.327 412.637 155.259 412.357 C 153.420 411.877 153.379 411.453 154.483 404.416 C 155.124 400.327 155.428 396.761 155.158 396.491 C 154.347 395.680 151.157 395.937 150.587 396.860 "/></g>
<g fill="#272650FF" stroke="#272650FF">
<path d="M 194.915 210.598 C 193.037 212.542 190.038 215.039 188.250 216.148 C 186.463 217.256 185.000 218.569 185.000 219.066 C 185.000 220.646 190.803 226.530 191.588 225.745 C 192.002 225.331 191.364 223.952 190.171 222.682 C 188.977 221.411 188.000 220.038 188.000 219.630 C 188.000 219.222 189.046 220.105 190.325 221.592 C 193.033 224.740 193.606 224.550 200.895 218.093 L 205.763 213.781 202.046 210.423 L 198.329 207.065 194.915 210.598 "/></g>
<g fill="#5A285BFF" stroke="#5A285BFF">
<path d="M 161.000 419.733 C 161.000 426.986 162.624 428.483 172.671 430.491 L 175.842 431.124 175.537 426.812 C 175.369 424.440 175.180 421.564 175.116 420.420 C 175.019 418.678 173.862 418.096 168.000 416.837 L 161.000 415.334 161.000 419.733 "/></g>
<g fill="#272650FF" stroke="#272650FF">
<path d="M 118.049 133.750 L 112.044 139.500 115.522 143.417 C 118.178 146.408 119.000 146.893 119.000 145.471 C 119.000 144.447 117.773 142.235 116.273 140.555 L 113.546 137.500 116.955 140.702 L 120.365 143.903 123.932 140.682 C 125.895 138.910 128.603 136.689 129.951 135.745 L 132.403 134.030 129.514 131.015 C 127.926 129.357 126.047 128.000 125.340 128.000 C 124.632 128.000 121.351 130.588 118.049 133.750 "/></g>
<g fill="#FEA1ABFF" stroke="#FEA1ABFF">
<path d="M 155.945 178.566 C 154.915 179.808 154.891 180.810 155.832 183.413 C 156.793 186.069 156.731 187.510 155.510 190.973 C 154.679 193.326 154.000 195.462 154.000 195.720 C 154.000 196.158 164.196 195.044 164.761 194.543 C 164.904 194.416 164.333 192.361 163.491 189.975 C 162.452 187.029 162.288 185.312 162.981 184.619 C 164.367 183.233 164.267 179.667 162.800 178.200 C 161.114 176.514 157.488 176.707 155.945 178.566 "/></g>
<g fill="#4D2353FF" stroke="#4D2353FF">
<path d="M 163.775 408.787 C 160.921 414.931 161.044 415.282 166.500 416.600 C 175.180 418.697 175.000 418.800 174.998 411.750 L 174.996 405.500 170.248 405.287 C 165.671 405.081 165.438 405.207 163.775 408.787 "/></g>
<g fill="#5A285BFF" stroke="#5A285BFF">
<path d="M 264.750 442.593 C 265.438 442.908 266.000 443.977 266.000 444.968 C 266.000 446.965 268.483 447.408 286.250 448.580 C 295.708 449.204 296.000 449.160 296.000 447.111 C 296.000 445.559 295.338 444.967 293.500 444.875 C 292.125 444.806 290.663 444.668 290.250 444.568 C 289.838 444.468 284.550 444.046 278.500 443.628 C 272.450 443.211 266.600 442.679 265.500 442.444 C 264.400 442.210 264.063 442.277 264.750 442.593 "/></g>
<g fill="#F8914FFF" stroke="#F8914FFF">
<path d="M 152.209 277.239 C 150.938 277.851 150.145 278.934 150.427 279.671 C 150.708 280.402 150.591 281.000 150.169 281.000 C 149.746 281.000 149.400 282.533 149.400 284.407 C 149.400 288.712 147.663 290.807 142.000 293.330 L 137.500 295.334 140.827 296.701 C 144.090 298.042 144.264 297.978 149.974 293.356 C 155.121 289.190 155.680 288.392 154.800 286.461 C 154.068 284.853 154.226 283.463 155.403 281.188 C 158.092 275.987 157.172 274.849 152.209 277.239 "/></g>
<g fill="#5A285BFF" stroke="#5A285BFF">
<path d="M 158.400 431.600 C 158.738 432.480 159.527 436.305 160.154 440.100 C 160.886 444.536 161.760 447.000 162.601 447.000 C 163.320 447.000 165.110 448.201 166.577 449.668 L 169.245 452.336 168.841 445.196 C 168.503 439.207 168.044 437.690 165.992 435.778 C 164.647 434.525 163.279 433.500 162.952 433.500 C 162.625 433.500 161.570 432.713 160.607 431.750 C 158.427 429.570 157.599 429.514 158.400 431.600 "/></g>
<g fill="#4D2353FF" stroke="#4D2353FF">
<path d="M 239.000 442.736 C 239.000 444.908 238.215 444.756 258.750 446.565 C 265.653 447.172 266.000 447.102 266.000 445.101 C 266.000 443.946 265.663 442.943 265.250 442.872 C 262.538 442.411 259.262 442.111 249.750 441.451 C 239.368 440.731 239.000 440.775 239.000 442.736 "/></g>
<g fill="#272650FF" stroke="#272650FF">
<path d="M 154.490 404.750 C 154.160 406.813 153.742 409.249 153.561 410.164 C 153.365 411.156 154.033 412.037 155.217 412.346 C 156.308 412.632 156.904 413.346 156.542 413.933 C 156.179 414.520 156.322 415.000 156.859 415.000 C 157.397 415.000 158.472 415.244 159.250 415.542 C 160.203 415.908 161.249 414.687 162.461 411.792 C 164.894 405.984 165.095 404.680 163.695 403.790 C 161.968 402.692 159.776 402.828 160.493 403.989 C 160.843 404.555 160.442 404.723 159.552 404.382 C 158.698 404.054 158.000 403.159 158.000 402.393 C 158.000 401.627 157.345 401.000 156.545 401.000 C 155.638 401.000 154.865 402.410 154.490 404.750 "/></g>
<g fill="#434B8CFF" stroke="#434B8CFF">
<path d="M 149.110 273.012 C 144.503 277.224 144.364 277.647 146.563 280.786 C 147.825 282.588 148.370 282.773 149.393 281.750 C 150.090 281.053 150.495 279.985 150.293 279.378 C 149.840 278.019 155.070 275.739 157.630 276.179 C 158.999 276.414 159.580 275.813 159.799 273.933 C 160.050 271.776 159.548 271.197 156.659 270.310 C 153.436 269.321 152.963 269.490 149.110 273.012 "/></g>
</svg>
