<?xml version="1.0" encoding="utf-8"?>
<!DOCTYPE svg PUBLIC "-//W3C//DTD SVG 20010904//EN" "http://www.w3.org/TR/2001/REC-SVG-20010904/DTD/svg10.dtd">
<svg version="1.0" xmlns="http://www.w3.org/2000/svg" width="600pt" height="400pt" viewBox="0 0 600 400" style="" preserveAspectRatio="xMidYMid meet">
<g fill="#BCD0FAFE" stroke="#BCD0FAFE">
<path d="M 223.200 99.200 C 221.495 100.905 221.541 118.147 223.250 117.925 C 225.882 117.584 227.000 118.053 227.000 119.500 C 227.000 121.274 226.518 121.347 223.934 119.965 C 222.032 118.947 222.000 119.890 222.000 176.302 C 222.000 207.857 222.297 245.898 222.661 260.838 L 223.321 288.000 313.047 288.000 L 402.773 288.000 402.307 272.750 C 402.051 264.363 401.236 246.549 400.495 233.165 C 399.334 212.175 398.910 208.654 397.409 207.557 C 395.809 206.387 395.801 206.211 397.311 205.366 C 398.827 204.517 398.744 200.757 396.220 156.267 C 394.692 129.327 393.046 107.646 392.485 107.085 C 391.845 106.445 366.341 105.878 321.991 105.518 C 283.771 105.207 251.713 104.708 250.750 104.409 C 249.788 104.110 249.000 103.241 249.000 102.478 C 249.000 101.063 248.241 100.872 235.308 99.026 C 226.122 97.715 224.664 97.736 223.200 99.200 M 296.987 119.825 C 304.612 120.763 304.987 121.806 305.721 144.117 L 306.316 162.197 311.158 165.812 C 315.859 169.322 317.091 171.000 314.965 171.000 C 313.087 171.000 309.000 167.797 309.000 166.326 C 309.000 165.532 308.581 165.141 308.069 165.457 C 307.557 165.774 306.833 165.539 306.461 164.936 C 306.088 164.334 305.614 165.984 305.408 168.604 C 305.201 171.224 304.550 173.847 303.961 174.434 C 303.249 175.142 293.488 175.473 274.899 175.418 C 252.111 175.352 246.658 175.073 245.563 173.918 C 244.678 172.985 244.011 168.486 243.609 160.750 C 243.274 154.288 242.717 143.840 242.371 137.533 L 241.742 126.066 244.621 126.933 C 246.204 127.410 249.675 128.782 252.333 129.983 C 254.991 131.184 257.429 131.905 257.750 131.584 C 258.071 131.263 257.861 131.000 257.283 131.000 C 256.706 131.000 256.010 130.147 255.738 129.104 C 255.240 127.202 250.239 124.352 246.500 123.839 L 244.500 123.565 246.500 124.389 C 252.778 126.978 255.000 128.196 255.000 129.047 C 255.000 130.306 255.016 130.310 250.236 128.000 C 247.959 126.900 245.426 126.000 244.607 126.000 C 242.653 126.000 241.660 124.328 243.090 123.444 C 243.900 122.944 243.864 122.534 242.961 121.976 C 242.272 121.550 241.987 120.476 242.327 119.590 C 242.882 118.145 245.473 118.038 267.223 118.564 C 280.575 118.886 293.969 119.454 296.987 119.825 M 387.383 277.060 C 387.868 277.503 387.995 278.571 387.664 279.433 C 387.131 280.822 381.798 281.016 340.781 281.138 C 275.136 281.334 273.918 281.318 272.823 280.223 C 272.173 279.573 272.290 278.509 273.164 277.108 L 274.493 274.981 330.496 275.618 C 361.298 275.968 386.897 276.617 387.383 277.060 M 387.608 251.421 C 387.970 252.364 387.861 253.539 387.367 254.033 C 386.865 254.535 361.347 255.102 329.645 255.316 C 282.592 255.635 272.733 255.469 272.304 254.350 C 270.835 250.521 270.944 250.513 329.851 250.104 C 383.055 249.735 386.996 249.825 387.608 251.421 M 352.665 197.270 C 353.305 197.679 353.980 197.672 354.165 197.256 C 354.349 196.840 362.038 196.633 371.250 196.797 C 385.097 197.042 388.000 197.345 388.000 198.547 C 388.000 199.733 385.895 200.000 376.531 200.000 C 366.748 200.000 365.147 200.220 365.638 201.500 C 365.955 202.325 365.702 203.000 365.076 203.000 C 364.449 203.000 363.686 202.345 363.379 201.545 C 362.900 200.296 354.525 200.081 304.166 200.024 C 249.973 199.961 245.381 199.825 243.784 198.228 C 242.147 196.591 244.926 196.501 296.778 196.514 C 326.875 196.522 352.024 196.862 352.665 197.270 M 259.197 215.000 C 261.574 219.874 261.566 227.627 259.182 228.903 C 257.227 229.949 243.974 229.359 242.778 228.173 C 242.381 227.779 241.755 224.213 241.386 220.248 C 240.741 213.298 240.802 213.005 243.108 212.062 C 244.424 211.523 248.198 211.177 251.495 211.291 C 257.277 211.493 257.550 211.624 259.197 215.000 M 330.650 216.500 C 333.378 228.282 332.223 229.962 321.807 229.358 C 317.809 229.127 314.247 228.614 313.892 228.218 C 313.537 227.823 312.951 224.046 312.589 219.824 C 311.825 210.920 311.565 211.130 322.996 211.366 L 329.493 211.500 330.650 216.500 M 263.358 243.750 C 264.380 249.931 264.081 258.519 262.800 259.800 C 261.167 261.433 249.850 261.342 247.573 259.677 C 246.578 258.949 245.627 257.262 245.460 255.927 C 245.293 254.592 244.933 251.837 244.660 249.804 C 244.078 245.464 245.572 243.750 249.700 244.025 C 256.549 244.482 258.864 244.003 259.500 242.000 C 260.538 238.730 262.690 239.706 263.358 243.750 M 323.752 187.257 C 331.904 187.406 337.143 187.115 337.365 186.500 C 337.830 185.213 338.591 185.975 339.364 188.500 C 339.970 190.480 339.514 190.500 292.738 190.500 C 252.024 190.500 245.339 190.294 244.335 189.006 C 243.695 188.185 243.538 187.285 243.987 187.006 C 244.742 186.538 292.868 186.690 323.752 187.257 M 263.420 276.220 L 263.500 285.500 255.655 285.794 C 251.186 285.961 247.266 285.635 246.544 285.037 C 244.847 283.628 243.783 272.966 245.173 271.291 C 245.839 270.490 248.602 270.000 252.462 270.000 C 258.218 270.000 258.769 269.803 259.887 267.348 C 261.986 262.741 263.334 266.125 263.420 276.220 M 367.000 141.568 C 377.808 141.869 381.500 142.293 381.500 143.236 C 381.500 144.222 374.632 144.558 350.250 144.764 C 319.665 145.023 319.000 144.986 319.000 143.045 C 319.000 141.195 319.823 141.037 331.250 140.699 C 337.988 140.499 345.525 140.522 348.000 140.750 C 350.475 140.978 359.025 141.346 367.000 141.568 M 376.250 131.730 C 380.311 132.051 382.000 132.599 382.000 133.593 C 382.000 134.772 376.991 135.000 351.059 135.000 C 321.391 135.000 317.847 134.674 319.443 132.092 C 320.011 131.174 365.556 130.883 376.250 131.730 M 381.433 123.063 C 381.947 123.560 382.115 124.218 381.808 124.526 C 381.075 125.258 321.407 126.093 319.592 125.397 C 318.825 125.102 318.343 124.105 318.522 123.181 C 318.701 122.256 318.881 121.500 318.923 121.500 C 344.724 121.500 380.750 122.401 381.433 123.063 M 387.750 187.986 C 387.888 187.994 388.000 188.675 388.000 189.500 C 388.000 190.784 385.066 191.000 367.594 191.000 C 347.680 191.000 347.200 191.048 347.710 193.000 C 348.315 195.312 346.183 195.787 345.469 193.500 C 345.211 192.675 344.677 191.213 344.282 190.250 C 343.599 188.583 343.577 188.583 343.826 190.250 C 343.986 191.319 343.442 192.000 342.427 192.000 C 341.259 192.000 340.922 191.407 341.290 189.999 C 341.578 188.898 341.405 188.249 340.907 188.558 C 340.408 188.866 340.000 188.577 340.000 187.915 C 340.000 186.994 345.565 186.860 363.750 187.342 C 376.813 187.688 387.613 187.978 387.750 187.986 M 364.656 218.000 C 371.333 218.000 372.000 218.182 372.000 220.000 C 372.000 221.924 371.333 222.000 354.500 222.000 C 344.539 222.000 337.000 221.604 337.000 221.082 C 337.000 220.577 336.699 219.379 336.331 218.419 C 335.710 216.803 336.452 216.724 346.486 217.338 C 352.440 217.702 360.616 218.000 364.656 218.000 M 294.156 218.000 C 300.333 218.000 301.000 218.195 301.000 220.000 C 301.000 221.923 300.333 222.000 283.583 222.000 C 265.787 222.000 264.477 221.713 265.809 218.108 C 266.225 216.982 268.332 216.839 276.817 217.358 C 282.589 217.711 290.391 218.000 294.156 218.000 "/></g>
<g fill="#BCD0FAFE" stroke="#BCD0FAFE">
<path d="M 223.000 324.429 C 223.000 348.070 223.247 353.104 224.466 354.323 C 228.512 358.369 312.689 357.387 390.748 352.384 L 400.996 351.727 402.050 347.614 C 402.629 345.351 403.643 342.079 404.304 340.342 C 405.235 337.892 405.243 332.616 404.336 316.842 C 403.693 305.654 403.129 296.388 403.084 296.250 C 403.038 296.113 371.613 295.999 333.250 295.998 L 263.500 295.997 263.500 303.748 L 263.500 311.500 256.000 311.741 C 251.113 311.898 247.927 311.538 246.855 310.708 C 244.645 308.995 243.852 297.922 245.889 297.219 C 246.691 296.943 247.001 297.189 246.622 297.802 C 246.262 298.386 246.261 301.369 246.621 304.432 C 247.191 309.279 247.549 309.985 249.388 309.884 C 250.928 309.799 251.052 309.649 249.846 309.329 C 247.902 308.813 246.728 299.961 248.445 298.765 C 249.025 298.361 251.525 297.955 254.000 297.863 C 261.917 297.568 247.006 296.249 234.250 296.117 L 223.000 296.000 223.000 324.429 M 386.750 301.992 C 387.438 301.997 388.000 302.866 388.000 303.924 C 388.000 305.634 387.084 305.893 379.750 306.252 C 375.213 306.474 349.225 306.621 322.000 306.578 L 272.500 306.500 272.187 304.302 C 271.901 302.288 272.362 302.072 277.687 301.732 C 280.884 301.528 306.450 301.501 334.500 301.673 C 362.550 301.845 386.063 301.988 386.750 301.992 M 387.390 328.990 C 388.027 329.627 388.050 330.342 387.450 330.927 C 385.964 332.377 273.037 333.580 272.850 332.148 C 272.768 331.517 272.655 330.438 272.600 329.750 C 272.525 328.817 276.812 328.344 289.500 327.885 C 314.743 326.973 386.179 327.779 387.390 328.990 M 262.923 319.250 C 262.802 320.488 263.018 322.222 263.403 323.105 C 263.788 323.988 263.967 327.588 263.801 331.105 L 263.500 337.500 255.721 337.793 C 246.837 338.127 245.282 337.271 245.055 331.921 C 244.975 330.040 244.818 327.162 244.705 325.527 C 244.568 323.537 244.996 322.484 246.000 322.339 C 246.825 322.220 250.067 321.841 253.204 321.495 C 257.637 321.007 259.044 320.437 259.521 318.934 C 260.396 316.176 263.198 316.436 262.923 319.250 "/></g>
<g fill="#BCD0FAFE" stroke="#BCD0FAFE">
<path d="M 542.588 130.508 C 539.886 132.377 537.306 134.490 536.853 135.203 C 536.401 135.916 536.010 136.050 535.985 135.500 C 535.960 134.950 535.475 135.297 534.908 136.271 C 533.726 138.302 531.809 137.660 532.635 135.510 C 533.499 133.256 530.005 132.910 509.500 133.216 L 490.500 133.500 490.199 136.086 C 490.034 137.508 490.517 139.184 491.273 139.812 C 492.160 140.548 499.007 141.050 510.574 141.226 C 528.342 141.498 528.469 141.515 525.000 143.233 C 522.224 144.607 518.296 145.021 506.000 145.233 L 490.500 145.500 490.221 158.737 L 489.942 171.974 485.221 176.352 C 482.624 178.760 478.413 182.704 475.862 185.115 L 471.225 189.500 470.118 202.500 C 469.510 209.650 468.740 216.478 468.409 217.674 C 467.908 219.482 468.269 219.903 470.554 220.174 C 474.549 220.648 477.393 224.837 476.074 228.305 C 475.101 230.864 475.203 231.000 478.074 231.000 C 483.012 231.000 486.789 233.560 488.039 237.756 C 489.445 242.476 488.052 246.564 484.481 248.190 C 482.705 249.000 482.131 249.837 482.603 250.928 C 484.553 255.435 484.177 257.673 481.025 260.325 L 477.872 262.979 481.421 269.239 C 483.372 272.683 485.029 275.275 485.103 275.000 C 485.177 274.725 485.187 274.829 485.125 275.230 C 485.064 275.632 485.973 278.526 487.146 281.662 L 489.279 287.363 486.584 289.681 C 485.101 290.957 482.588 292.000 481.000 292.000 L 478.111 292.000 483.055 301.509 C 485.775 306.739 488.000 312.121 488.000 313.470 C 488.000 316.318 484.470 320.000 481.740 320.000 C 480.028 320.000 480.000 320.143 481.429 321.571 C 482.301 322.444 483.000 324.819 483.000 326.911 C 483.000 331.776 480.500 333.000 470.567 333.000 L 463.228 333.000 462.498 349.050 C 462.096 357.878 462.045 365.378 462.384 365.717 C 462.723 366.056 463.000 362.469 463.000 357.747 L 463.000 349.160 469.902 344.140 C 479.647 337.052 499.161 317.599 504.150 310.000 C 505.052 308.625 506.625 306.600 507.645 305.500 C 508.665 304.400 510.134 302.270 510.910 300.767 C 511.685 299.264 513.035 297.221 513.910 296.228 C 514.784 295.235 515.598 293.922 515.717 293.310 C 515.836 292.698 517.299 290.176 518.967 287.704 C 520.635 285.232 522.000 282.895 522.000 282.509 C 522.000 282.124 522.920 280.517 524.044 278.939 C 525.168 277.360 526.760 273.803 527.582 271.034 C 528.405 268.265 529.585 266.000 530.205 266.000 C 530.826 266.000 531.037 265.704 530.675 265.342 C 530.313 264.980 530.408 264.193 530.885 263.592 C 532.307 261.803 538.615 241.506 542.414 226.500 C 549.284 199.362 550.820 186.575 551.534 150.571 C 552.046 124.703 551.795 124.139 542.588 130.508 "/></g>
<g fill="#BCD0FAFE" stroke="#BCD0FAFE">
<path d="M 121.873 88.750 C 120.353 92.627 121.511 149.736 123.469 167.500 C 124.318 175.200 125.291 184.650 125.632 188.500 C 125.973 192.350 126.618 195.963 127.066 196.529 C 127.513 197.096 127.845 198.896 127.805 200.529 C 127.764 202.163 128.524 207.045 129.494 211.377 C 130.829 217.339 131.712 219.374 133.129 219.744 C 134.503 220.103 135.021 221.198 135.079 223.867 C 135.122 225.865 135.406 226.825 135.708 226.000 C 136.011 225.175 137.032 222.700 137.976 220.500 C 139.706 216.472 139.882 212.987 138.519 209.742 C 138.077 208.692 138.404 207.033 139.330 205.620 C 140.182 204.319 140.639 202.335 140.345 201.212 C 139.595 198.343 144.194 195.334 147.291 196.668 C 152.273 198.816 153.000 197.639 153.000 187.427 L 153.000 178.000 157.000 178.000 L 161.000 178.000 161.000 185.092 C 161.000 190.670 161.427 192.727 163.000 194.727 C 165.513 197.922 165.560 201.540 163.116 203.632 C 161.381 205.118 161.224 207.026 161.122 227.817 C 161.010 250.644 161.303 252.588 164.659 251.300 C 165.740 250.886 166.000 244.799 166.000 219.893 L 166.000 189.000 170.500 189.000 L 175.000 189.000 175.047 211.750 L 175.094 234.500 177.220 229.500 C 178.647 226.145 179.536 221.375 179.923 215.000 L 180.500 205.500 184.000 205.500 L 187.500 205.500 187.790 214.966 C 188.104 225.191 188.511 225.960 193.628 225.985 C 196.845 226.000 199.626 228.177 198.584 229.864 C 198.260 230.388 195.746 231.393 192.998 232.097 C 188.275 233.308 188.000 233.559 188.000 236.664 C 188.000 239.704 188.206 239.912 190.750 239.448 C 195.883 238.511 196.421 240.018 193.480 247.101 C 190.355 254.626 188.974 262.040 188.331 274.750 L 187.863 284.000 183.931 284.000 C 181.769 284.000 180.000 283.550 180.000 283.000 C 180.000 282.450 178.875 282.000 177.500 282.000 C 176.125 282.000 175.000 282.450 175.000 283.000 C 175.000 283.550 172.975 284.000 170.500 284.000 C 168.025 284.000 166.000 283.586 166.000 283.081 C 166.000 282.538 164.502 282.575 162.343 283.171 C 160.331 283.726 157.472 284.003 155.988 283.785 L 153.291 283.389 156.027 287.703 C 158.366 291.392 158.838 291.726 159.288 290.008 C 159.794 288.074 160.623 288.000 181.906 288.000 L 204.000 288.000 204.000 260.217 L 204.000 232.435 200.399 225.652 C 198.418 221.922 197.057 218.610 197.375 218.292 C 197.693 217.974 198.262 218.566 198.639 219.607 C 199.017 220.648 200.183 222.738 201.231 224.250 C 202.279 225.763 202.858 227.000 202.518 227.000 C 202.179 227.000 202.359 227.788 202.920 228.750 C 203.626 229.963 203.949 219.667 203.970 195.190 L 204.000 159.880 200.422 155.190 C 198.454 152.611 196.204 150.140 195.422 149.700 C 194.640 149.260 194.000 148.489 194.000 147.986 C 194.000 146.942 193.444 146.309 179.969 132.009 C 172.096 123.654 169.830 121.770 168.841 122.759 C 167.137 124.463 165.000 124.319 165.000 122.500 C 165.000 121.626 165.909 121.000 167.179 121.000 C 168.935 121.000 168.015 119.726 162.429 114.425 C 158.618 110.809 154.317 107.226 152.871 106.462 C 151.425 105.699 149.977 104.382 149.653 103.537 C 149.328 102.692 148.486 101.998 147.781 101.995 C 147.077 101.993 144.859 100.483 142.853 98.640 C 138.460 94.606 125.687 86.000 124.091 86.000 C 123.464 86.000 122.465 87.238 121.873 88.750 M 202.000 274.500 L 202.000 284.000 197.500 284.000 L 193.000 284.000 193.000 274.500 L 193.000 265.000 197.500 265.000 L 202.000 265.000 202.000 274.500 "/></g>
<g fill="#1A0E90FE" stroke="#1A0E90FE">
<path d="M 217.810 104.870 L 218.120 115.744 215.536 116.238 C 214.115 116.510 212.698 116.321 212.388 115.818 C 212.077 115.315 211.075 114.978 210.161 115.067 C 205.720 115.503 205.000 115.028 205.000 111.657 C 205.000 107.101 208.941 99.980 212.972 97.250 C 214.800 96.013 215.814 95.000 215.225 95.000 C 213.109 95.000 207.680 100.496 205.880 104.459 C 203.619 109.435 203.435 114.846 205.500 115.638 C 206.325 115.955 207.000 116.616 207.000 117.107 C 207.000 117.598 206.325 118.000 205.500 118.000 C 204.178 118.000 204.000 128.111 204.000 203.000 L 204.000 288.000 182.500 288.242 C 169.652 288.386 172.770 288.487 190.250 288.492 L 219.500 288.500 219.119 231.250 C 218.854 191.431 219.060 174.000 219.796 174.000 C 220.377 174.000 221.059 174.788 221.311 175.750 C 221.562 176.713 221.820 174.013 221.884 169.750 C 221.948 165.488 221.663 162.000 221.250 162.000 C 220.838 162.000 220.540 160.653 220.589 159.005 C 220.637 157.358 220.975 156.308 221.339 156.672 C 221.702 157.036 222.000 148.919 222.000 138.635 C 222.000 122.937 221.759 119.845 220.500 119.362 C 219.278 118.893 219.000 116.487 219.000 106.393 C 219.000 99.577 218.663 93.999 218.250 93.998 C 217.838 93.997 217.640 98.889 217.810 104.870 "/></g>
<g fill="#4042E2FE" stroke="#4042E2FE">
<path d="M 219.119 231.250 L 219.500 288.500 189.500 289.000 L 159.500 289.500 159.180 291.754 C 159.004 292.994 159.454 294.210 160.180 294.456 C 161.324 294.843 197.562 295.852 214.250 295.962 L 220.000 296.000 220.000 325.809 C 220.000 349.715 220.276 355.995 221.394 357.523 C 222.463 358.986 224.616 359.596 230.644 360.143 C 249.093 361.821 308.328 360.866 364.000 357.995 C 396.575 356.315 400.000 355.959 400.000 354.253 C 400.000 352.981 398.773 352.841 392.250 353.368 C 364.276 355.628 314.111 357.337 273.458 357.413 C 230.882 357.493 227.210 357.366 224.692 355.717 L 221.970 353.934 222.235 324.717 L 222.500 295.500 312.779 295.245 C 394.506 295.014 403.116 295.140 403.669 296.579 C 404.158 297.855 404.441 297.905 405.104 296.834 C 405.764 295.768 412.214 295.500 437.197 295.500 C 464.371 295.500 468.504 295.301 468.761 293.981 C 468.924 293.145 468.476 291.666 467.766 290.694 C 466.543 289.022 459.978 288.930 344.392 288.972 L 222.311 289.017 221.655 275.350 C 221.295 267.834 221.000 241.955 221.000 217.842 C 221.000 185.897 220.693 174.000 219.869 174.000 C 219.037 174.000 218.839 189.107 219.119 231.250 "/></g>
<g fill="#90B2FAFE" stroke="#90B2FAFE">
<path d="M 459.227 132.250 C 458.616 133.488 457.850 136.075 457.524 138.000 C 457.198 139.925 454.809 147.307 452.215 154.404 C 448.873 163.550 446.969 167.449 445.676 167.790 C 444.322 168.148 444.004 168.881 444.445 170.636 C 444.795 172.030 444.594 173.000 443.956 173.000 C 443.361 173.000 442.954 173.788 443.052 174.750 C 443.354 177.719 443.070 178.548 440.979 180.792 C 439.868 181.985 438.955 183.190 438.952 183.470 C 438.931 185.077 437.661 186.908 436.895 186.435 C 436.403 186.131 436.000 186.809 436.000 187.941 C 436.000 189.139 435.348 190.000 434.441 190.000 C 433.584 190.000 433.138 190.414 433.450 190.919 C 433.763 191.425 433.445 192.438 432.745 193.169 C 429.495 196.565 424.896 203.189 420.656 210.579 L 416.022 218.659 417.031 238.079 C 417.586 248.761 418.296 259.927 418.610 262.894 L 419.180 268.288 423.255 261.894 C 425.496 258.377 429.556 250.365 432.276 244.088 L 437.222 232.676 435.131 231.088 C 432.107 228.792 431.466 223.929 433.405 218.002 C 434.602 214.342 434.772 212.442 434.026 211.048 C 430.824 205.066 435.666 199.644 443.704 200.211 L 447.909 200.507 450.936 189.504 C 454.609 176.151 457.000 164.886 457.000 160.935 C 457.000 159.321 457.450 158.000 458.000 158.000 C 458.550 158.000 459.000 158.668 459.000 159.484 C 459.000 161.693 454.337 183.264 451.755 193.000 L 449.500 201.500 451.571 203.712 C 452.710 204.929 454.510 207.752 455.571 209.987 C 456.733 212.434 458.401 214.282 459.766 214.637 C 461.012 214.960 462.877 216.299 463.910 217.612 C 467.629 222.341 468.412 220.818 469.967 205.818 C 471.100 194.888 469.879 169.790 467.590 156.970 C 465.247 143.851 461.904 130.000 461.079 130.000 C 460.672 130.000 459.838 131.013 459.227 132.250 "/></g>
<g fill="#120878FE" stroke="#120878FE">
<path d="M 206.250 118.661 C 205.264 119.060 205.000 136.663 205.000 201.968 L 205.000 284.770 207.465 286.385 C 208.820 287.273 211.893 288.000 214.293 288.000 L 218.656 288.000 218.209 203.750 C 217.963 157.413 217.655 119.377 217.524 119.227 C 217.031 118.659 207.445 118.178 206.250 118.661 "/></g>
<g fill="#4042E2FE" stroke="#4042E2FE">
<path d="M 129.788 233.750 C 121.933 242.102 118.832 250.970 117.069 270.112 C 115.446 287.738 115.637 298.647 117.582 299.393 C 119.612 300.172 137.801 300.160 140.719 299.378 C 142.983 298.771 146.596 291.045 147.686 284.480 C 148.130 281.804 147.783 281.267 144.638 279.767 C 137.606 276.414 123.864 261.736 125.873 259.727 C 126.501 259.099 127.844 260.350 129.672 263.267 C 133.250 268.974 141.005 275.945 147.619 279.399 C 157.182 284.393 172.365 282.293 176.016 275.470 C 178.107 271.562 176.133 270.329 171.045 272.365 C 160.275 276.675 150.368 271.573 143.151 258.000 C 139.240 250.643 138.479 248.000 140.273 248.000 C 141.047 248.000 142.311 249.912 143.082 252.249 C 144.525 256.619 151.605 268.000 152.882 268.000 C 154.301 268.000 156.114 260.926 156.197 255.063 C 156.256 250.946 155.761 248.365 154.612 246.790 C 153.694 245.530 151.648 242.708 150.065 240.517 C 147.528 237.007 146.770 236.570 143.678 236.836 C 139.639 237.184 134.000 234.643 134.000 232.474 C 134.000 230.277 132.677 230.677 129.788 233.750 "/></g>
<g fill="#BCD0FAFE" stroke="#BCD0FAFE">
<path d="M 60.242 63.250 C 54.272 69.625 51.474 83.002 51.615 104.500 C 51.762 127.076 54.765 135.000 63.174 135.000 L 67.000 135.000 67.008 144.250 C 67.017 156.107 70.447 186.331 72.993 197.000 C 73.452 198.925 74.564 203.920 75.464 208.100 C 76.364 212.281 79.042 221.731 81.416 229.100 L 85.732 242.500 86.423 236.000 C 86.803 232.425 86.965 221.625 86.782 212.000 L 86.450 194.500 86.154 214.500 C 85.874 233.463 85.782 234.293 84.380 230.500 C 81.103 221.636 75.938 200.051 75.407 193.000 C 75.097 188.875 74.415 184.600 73.893 183.500 C 71.540 178.547 71.271 136.206 73.441 112.500 C 74.326 102.831 74.529 82.464 73.775 78.997 C 73.475 77.620 72.765 74.808 72.196 72.747 C 71.627 70.686 71.405 69.000 71.703 69.000 C 72.001 69.000 71.685 68.325 71.000 67.500 C 70.315 66.675 70.114 66.000 70.552 66.000 C 70.990 66.000 70.292 64.875 69.000 63.500 C 66.087 60.399 62.994 60.311 60.242 63.250 "/></g>
<g fill="#BCD0FAFE" stroke="#BCD0FAFE">
<path d="M 112.964 247.583 L 112.928 283.500 110.469 280.500 L 108.010 277.500 108.005 280.667 C 108.002 282.408 107.503 283.999 106.897 284.201 C 106.144 284.452 106.307 285.798 107.410 288.438 C 108.299 290.566 108.830 292.504 108.589 292.744 C 108.172 293.162 100.309 290.026 91.250 285.829 L 87.000 283.860 86.772 263.180 L 86.544 242.500 86.251 262.750 C 86.090 273.888 85.713 283.000 85.414 283.000 C 85.114 283.000 83.998 282.534 82.934 281.965 C 81.412 281.150 81.000 281.257 81.000 282.465 C 81.000 283.589 79.930 284.000 77.000 284.000 C 73.020 284.000 73.000 283.981 73.000 280.115 C 73.000 277.042 72.461 275.877 70.418 274.538 L 67.836 272.846 68.015 276.673 C 68.342 283.668 68.209 284.000 65.079 284.000 L 62.158 284.000 70.718 296.750 C 75.427 303.763 80.824 311.075 82.713 313.000 C 84.602 314.925 86.762 317.662 87.513 319.082 C 88.263 320.502 93.957 326.531 100.165 332.480 L 111.453 343.296 112.117 339.898 C 112.482 338.029 113.083 334.362 113.452 331.749 C 114.079 327.306 113.959 326.935 111.589 326.034 C 108.571 324.886 107.289 320.856 108.852 317.426 C 109.460 316.092 110.754 314.985 111.729 314.967 C 113.261 314.938 113.196 314.680 111.250 313.056 C 108.345 310.633 108.324 309.413 111.223 311.443 C 114.416 313.680 115.095 313.377 113.898 310.250 C 113.138 308.264 113.194 305.850 114.100 301.559 C 115.056 297.030 115.075 295.525 114.177 295.226 C 113.530 295.010 113.036 294.083 113.079 293.167 C 113.145 291.783 113.261 291.754 113.766 293.000 C 114.100 293.825 114.249 276.050 114.098 253.500 C 113.946 230.950 113.637 212.313 113.411 212.083 C 113.185 211.854 112.984 227.829 112.964 247.583 "/></g>
<g fill="#FE7062FE" stroke="#FE7062FE">
<path d="M 452.504 239.994 C 452.091 240.662 449.861 241.019 447.148 240.851 C 442.726 240.577 442.418 240.732 440.812 244.031 C 438.577 248.622 435.000 260.259 435.000 262.937 C 435.000 267.066 437.881 271.862 444.287 278.394 L 450.763 285.000 458.132 284.994 C 464.918 284.989 473.000 283.586 473.000 282.413 C 473.000 281.498 468.754 273.522 466.658 270.500 C 464.923 267.997 464.879 267.742 466.394 268.960 C 467.393 269.763 469.980 273.025 472.142 276.210 C 474.305 279.394 476.343 282.000 476.671 282.000 C 478.368 282.000 485.000 279.584 485.000 278.966 C 485.000 278.572 483.864 275.680 482.475 272.540 C 478.696 263.993 469.067 252.639 455.855 241.149 C 454.037 239.568 452.990 239.207 452.504 239.994 "/></g>
<g fill="#90B2FAFE" stroke="#90B2FAFE">
<path d="M 452.357 82.091 C 447.096 83.615 439.467 91.262 438.008 96.472 C 434.558 108.795 443.194 121.771 455.526 122.794 C 463.893 123.488 467.529 122.397 472.040 117.842 C 477.503 112.324 479.143 108.784 479.143 102.512 C 479.143 92.948 472.558 84.385 463.436 82.088 C 458.450 80.833 456.698 80.833 452.357 82.091 M 458.995 87.250 C 458.991 89.053 458.050 89.798 454.260 91.000 C 447.681 93.086 444.647 97.628 445.282 104.438 C 445.667 108.567 446.352 109.934 449.462 112.785 C 453.024 116.049 453.461 116.179 459.752 115.847 C 466.869 115.471 469.394 117.139 464.516 118.994 C 456.602 122.003 445.981 118.372 442.909 111.606 C 438.154 101.136 442.430 90.105 452.655 86.459 C 458.014 84.548 459.001 84.671 458.995 87.250 "/></g>
<g fill="#90B2FAFE" stroke="#90B2FAFE">
<path d="M 503.507 83.573 C 494.570 88.233 490.064 94.653 490.022 102.782 C 489.969 113.050 497.105 121.574 507.297 123.421 C 516.665 125.117 523.615 121.829 529.168 113.074 C 535.638 102.871 530.575 88.479 518.782 83.553 C 514.029 81.567 507.336 81.576 503.507 83.573 M 512.000 87.389 C 512.000 89.346 511.340 89.901 508.350 90.462 C 501.520 91.744 496.671 99.568 498.411 106.501 C 500.713 115.672 513.505 119.222 520.184 112.543 C 522.396 110.332 522.898 110.205 524.577 111.433 C 526.435 112.792 526.434 112.863 524.507 114.992 C 517.991 122.193 503.521 121.483 497.562 113.671 C 490.480 104.385 494.634 90.387 505.637 86.465 C 511.061 84.531 512.000 84.668 512.000 87.389 "/></g>
<g fill="#4042E2FE" stroke="#4042E2FE">
<path d="M 270.604 90.764 L 266.709 91.138 273.604 94.717 C 277.397 96.686 280.735 98.653 281.022 99.089 C 281.309 99.524 284.009 101.028 287.022 102.431 L 292.500 104.980 329.095 104.990 C 363.285 104.999 365.799 104.880 367.345 103.171 C 369.685 100.585 369.399 96.308 366.706 93.615 C 364.583 91.492 363.259 91.269 348.956 90.634 C 333.627 89.952 278.086 90.044 270.604 90.764 "/></g>
<g fill="#1A0E90FE" stroke="#1A0E90FE">
<path d="M 114.792 292.500 C 114.402 298.000 113.923 303.850 113.727 305.500 C 113.531 307.150 113.791 309.893 114.306 311.596 C 115.837 316.665 120.733 317.720 149.000 319.073 C 162.475 319.717 174.015 320.656 174.645 321.158 C 176.032 322.264 177.393 328.467 177.078 332.250 C 176.952 333.763 177.333 335.000 177.925 335.000 C 178.887 335.000 179.401 332.802 179.269 329.250 C 179.243 328.563 179.572 328.000 180.000 328.000 C 180.784 328.000 182.511 321.234 182.133 319.645 C 182.021 319.174 182.344 318.274 182.849 317.645 C 184.318 315.817 185.412 309.627 184.126 310.422 C 183.528 310.792 177.067 309.448 169.769 307.435 C 162.471 305.422 153.800 303.158 150.500 302.403 L 144.500 301.031 153.000 301.628 C 157.675 301.955 161.215 301.926 160.867 301.563 C 160.520 301.199 155.795 300.701 150.367 300.455 C 144.940 300.209 140.725 299.970 141.000 299.923 C 141.275 299.876 136.325 299.885 130.000 299.943 C 123.675 300.001 117.958 299.686 117.296 299.243 C 116.572 298.760 115.974 295.262 115.796 290.469 L 115.500 282.500 114.792 292.500 "/></g>
<g fill="#0E046EFE" stroke="#0E046EFE">
<path d="M 368.800 94.200 C 369.460 94.860 370.000 96.475 370.000 97.788 C 370.000 99.983 370.302 100.129 373.750 99.598 C 381.586 98.390 395.911 98.511 397.196 99.796 C 398.666 101.266 399.836 112.569 399.910 126.000 C 399.939 131.225 400.515 145.550 401.192 157.833 L 402.421 180.166 406.461 183.307 C 408.682 185.035 410.813 186.897 411.196 187.445 C 411.578 187.993 412.202 188.131 412.582 187.751 C 413.503 186.831 413.248 168.548 412.015 147.000 C 411.464 137.375 410.732 124.551 410.387 118.501 C 410.043 112.452 409.385 106.513 408.925 105.303 C 407.393 101.274 400.918 95.072 397.152 94.025 C 391.687 92.508 367.258 92.658 368.800 94.200 "/></g>
<g fill="#120878FE" stroke="#120878FE">
<path d="M 301.536 59.373 C 298.989 61.920 298.943 62.198 299.607 70.991 L 300.287 80.000 288.766 80.000 C 275.816 80.000 274.769 80.493 275.166 86.398 C 275.464 90.822 276.901 91.226 276.777 86.851 C 276.720 84.864 277.369 83.203 278.535 82.351 C 280.681 80.782 291.578 80.508 292.500 82.000 C 292.888 82.627 290.713 83.000 286.666 83.000 C 279.941 83.000 279.000 83.624 279.000 88.082 C 279.000 89.935 280.143 90.000 312.519 90.000 L 346.038 90.000 345.395 87.250 C 344.239 82.308 342.865 81.710 331.497 81.205 C 323.510 80.849 321.008 80.421 321.373 79.471 C 324.980 70.071 324.287 65.167 318.716 60.657 C 315.910 58.387 313.710 57.558 309.582 57.215 C 304.740 56.814 303.859 57.050 301.536 59.373 M 313.835 65.597 C 316.915 67.754 316.406 71.931 312.818 73.935 C 310.371 75.303 309.956 75.270 308.068 73.562 C 305.573 71.304 305.413 68.306 307.655 65.829 C 309.686 63.584 310.897 63.539 313.835 65.597 "/></g>
<g fill="#120878FE" stroke="#120878FE">
<path d="M 403.199 191.362 C 403.584 197.488 404.168 208.350 404.497 215.500 C 404.826 222.650 405.861 241.775 406.797 258.000 L 408.500 287.500 413.783 287.803 L 419.067 288.107 418.504 281.803 C 417.640 272.118 415.130 218.806 414.982 207.000 C 414.864 197.596 413.460 181.858 413.131 186.250 C 413.000 188.002 411.460 188.667 410.833 187.243 C 410.650 186.826 408.700 185.077 406.500 183.355 L 402.500 180.225 403.199 191.362 "/></g>
<g fill="#BCD0FAFE" stroke="#BCD0FAFE">
<path d="M 106.000 114.237 C 101.924 115.336 99.793 116.857 100.570 118.113 C 100.871 118.601 100.617 119.000 100.004 119.000 C 98.701 119.000 94.928 127.149 90.933 138.593 C 86.989 149.890 86.665 165.079 90.269 169.740 C 90.797 170.422 91.154 176.384 91.062 182.990 C 90.928 192.754 91.161 195.000 92.311 195.000 C 93.423 195.000 93.830 192.462 94.215 183.112 C 94.630 173.040 95.033 170.763 96.852 168.207 C 98.034 166.549 99.000 164.698 99.000 164.096 C 99.000 163.493 99.415 163.000 99.922 163.000 C 100.430 163.000 101.388 161.313 102.053 159.250 C 102.717 157.188 103.587 155.050 103.987 154.500 C 105.046 153.042 109.630 140.414 111.497 133.813 C 112.891 128.885 113.445 122.980 113.097 116.785 C 112.952 114.216 110.004 113.157 106.000 114.237 "/></g>
<g fill="#BCD0FAFE" stroke="#BCD0FAFE">
<path d="M 119.150 335.250 C 117.274 348.674 116.987 347.891 125.750 353.199 C 134.707 358.625 145.802 363.998 148.050 363.999 C 148.903 364.000 150.089 364.489 150.687 365.087 C 152.741 367.141 152.791 364.479 150.906 353.500 C 149.868 347.450 148.776 339.360 148.481 335.522 C 148.186 331.685 147.568 328.168 147.108 327.708 C 146.648 327.248 144.298 327.029 141.886 327.221 L 137.500 327.570 142.209 329.813 C 144.798 331.047 147.240 332.579 147.634 333.217 C 148.028 333.854 145.331 332.717 141.641 330.688 C 135.632 327.385 134.168 327.000 127.617 327.000 L 120.303 327.000 119.150 335.250 "/></g>
<g fill="#1A0E90FE" stroke="#1A0E90FE">
<path d="M 435.048 203.449 C 433.263 205.349 432.906 206.526 433.456 208.699 C 434.454 212.642 434.355 214.827 432.937 220.177 C 431.941 223.932 431.948 225.461 432.975 227.939 C 434.238 230.989 437.596 232.724 440.207 231.677 C 440.918 231.391 440.273 231.122 438.773 231.079 C 432.896 230.909 431.567 223.585 435.741 214.379 C 437.197 211.169 437.992 210.507 440.353 210.541 C 443.595 210.588 445.907 213.764 445.965 218.250 C 445.999 220.956 446.942 221.725 448.417 220.250 C 448.829 219.838 448.567 219.493 447.833 219.485 C 446.940 219.474 446.864 219.238 447.603 218.767 C 448.209 218.380 449.542 218.676 450.565 219.424 C 452.143 220.578 452.223 221.027 451.090 222.392 C 450.356 223.276 450.148 224.007 450.628 224.015 C 451.107 224.024 450.857 224.438 450.070 224.935 C 448.370 226.011 447.798 228.757 449.105 229.565 C 449.615 229.880 449.774 230.557 449.457 231.069 C 449.141 231.581 449.359 232.000 449.941 232.000 C 450.523 232.000 450.927 232.338 450.839 232.750 C 450.403 234.773 453.220 238.973 456.281 240.865 C 460.168 243.267 476.000 259.414 476.000 260.977 C 476.000 262.714 478.559 262.111 481.344 259.718 C 484.279 257.197 484.720 254.367 482.626 251.503 C 481.387 249.809 481.558 249.469 484.354 248.062 C 492.869 243.775 488.095 231.000 477.978 231.000 C 475.211 231.000 475.106 230.851 476.074 228.305 C 476.901 226.131 476.730 225.115 475.192 223.055 C 473.614 220.941 472.482 220.507 468.642 220.542 C 465.093 220.574 464.925 220.632 467.927 220.792 C 470.837 220.946 472.396 221.688 473.942 223.653 C 475.853 226.083 475.902 226.501 474.515 228.618 C 472.419 231.817 472.529 232.000 476.550 232.000 C 481.497 232.000 485.590 234.386 486.853 238.007 C 487.965 241.199 486.917 246.000 485.107 246.000 C 483.659 246.000 459.227 221.292 458.543 219.134 C 458.211 218.089 454.015 214.867 449.220 211.975 C 434.038 202.820 435.383 203.925 437.518 202.363 C 438.543 201.614 438.925 201.000 438.365 201.000 C 437.806 201.000 436.313 202.102 435.048 203.449 "/></g>
<g fill="#BCD0FAFE" stroke="#BCD0FAFE">
<path d="M 158.632 323.092 C 158.239 325.053 157.264 326.380 155.964 326.720 C 154.139 327.197 153.990 327.759 154.597 331.878 C 154.971 334.420 155.553 336.725 155.889 337.000 C 156.225 337.275 156.529 339.525 156.565 342.000 C 156.600 344.475 157.003 351.120 157.459 356.767 C 158.264 366.737 158.364 367.051 160.894 367.610 C 166.123 368.765 167.514 369.291 168.235 370.385 C 168.690 371.075 168.975 370.815 168.985 369.700 C 168.993 368.710 170.846 361.310 173.102 353.256 C 176.537 340.992 177.131 337.548 176.758 332.056 C 176.513 328.450 175.803 324.263 175.181 322.750 C 174.091 320.100 173.781 320.000 166.650 320.000 L 159.250 320.000 158.632 323.092 "/></g>
<g fill="#7C96F4FE" stroke="#7C96F4FE">
<path d="M 188.200 297.750 C 187.722 298.713 186.756 302.200 186.055 305.500 C 183.645 316.846 178.673 334.501 177.709 335.138 C 177.178 335.489 177.030 336.239 177.379 336.804 C 177.728 337.370 177.537 339.088 176.953 340.623 C 175.566 344.271 171.391 360.392 170.511 365.500 C 170.131 367.700 169.381 370.033 168.842 370.685 C 168.304 371.336 168.007 373.361 168.182 375.185 C 168.426 377.727 168.966 378.500 170.500 378.500 C 172.129 378.500 172.748 377.388 173.836 372.500 C 174.571 369.200 178.002 355.250 181.459 341.500 C 184.917 327.750 188.517 313.013 189.458 308.750 C 190.400 304.488 191.611 301.000 192.150 301.000 C 192.746 301.000 193.006 305.103 192.814 311.502 C 192.578 319.406 192.809 322.004 193.750 322.002 C 194.671 322.001 195.000 319.208 195.000 311.378 C 195.000 302.049 195.183 300.907 196.500 302.000 C 197.325 302.685 198.000 304.121 198.000 305.191 C 198.000 306.262 199.167 311.719 200.593 317.319 C 202.020 322.918 203.412 328.400 203.687 329.500 C 203.963 330.600 204.166 332.386 204.140 333.469 C 204.113 334.552 204.450 335.677 204.888 335.969 C 205.617 336.456 206.606 340.306 213.042 367.713 C 215.347 377.531 217.125 380.372 219.423 377.914 C 220.525 376.736 220.290 374.830 218.020 366.500 C 212.999 348.079 210.658 338.521 210.490 335.755 C 210.398 334.246 210.094 333.239 209.815 333.518 C 209.326 334.008 203.273 312.001 200.940 301.250 L 199.801 296.000 194.435 296.000 C 190.324 296.000 188.867 296.409 188.200 297.750 "/></g>
<g fill="#7C96F4FE" stroke="#7C96F4FE">
<path d="M 425.618 307.205 C 424.132 313.417 420.710 326.375 418.014 336.000 C 415.318 345.625 412.400 356.425 411.530 360.000 C 410.660 363.575 409.769 367.175 409.550 368.000 C 409.332 368.825 409.119 370.314 409.077 371.309 C 409.034 372.304 408.631 372.890 408.181 372.612 C 407.730 372.333 407.557 373.437 407.796 375.065 C 408.737 381.477 412.311 379.438 414.094 371.472 C 414.755 368.517 415.752 366.189 416.309 366.299 C 416.941 366.425 416.929 366.223 416.275 365.762 C 415.576 365.268 416.322 360.788 418.524 352.262 C 420.336 345.243 421.904 339.725 422.008 340.000 C 422.112 340.275 422.265 339.600 422.349 338.500 C 422.432 337.400 424.031 330.200 425.902 322.500 C 427.773 314.800 429.703 306.813 430.191 304.750 C 431.890 297.562 433.114 300.683 432.935 311.750 C 432.796 320.381 433.032 322.446 434.131 322.226 C 435.212 322.010 435.428 319.746 435.159 311.476 C 434.936 304.636 435.181 301.000 435.864 301.000 C 436.439 301.000 437.196 302.688 437.547 304.750 C 437.898 306.813 439.571 313.900 441.265 320.500 C 442.959 327.100 444.272 333.513 444.184 334.750 C 444.095 335.988 444.520 337.000 445.128 337.000 C 445.741 337.000 446.000 337.891 445.710 339.000 C 445.423 340.100 445.489 341.000 445.857 341.000 C 446.777 341.000 449.092 351.042 448.422 352.126 C 448.125 352.607 448.326 353.000 448.869 353.000 C 449.412 353.000 450.377 355.588 451.013 358.750 C 454.866 377.905 456.248 381.152 459.260 378.140 C 460.095 377.305 459.929 375.265 458.620 370.257 C 457.648 366.541 456.190 360.575 455.381 357.000 C 454.571 353.425 451.292 341.050 448.094 329.500 C 444.896 317.950 441.654 305.800 440.890 302.500 L 439.500 296.500 433.911 296.205 L 428.321 295.910 425.618 307.205 "/></g>
<g fill="#120878FE" stroke="#120878FE">
<path d="M 382.000 358.063 C 376.225 358.463 357.550 359.129 340.500 359.542 C 323.450 359.955 308.646 360.599 307.602 360.973 C 305.965 361.560 306.240 361.980 309.602 364.024 C 311.746 365.328 313.822 366.868 314.216 367.447 C 315.314 369.064 390.993 368.900 390.997 367.281 C 390.999 366.556 391.673 366.321 392.664 366.701 C 393.880 367.168 394.105 366.979 393.500 366.000 C 392.875 364.990 393.135 364.838 394.555 365.383 C 395.591 365.780 396.130 365.797 395.752 365.419 C 395.375 365.041 395.951 363.607 397.033 362.231 C 398.115 360.856 399.000 359.116 399.000 358.365 C 399.000 356.883 399.027 356.883 382.000 358.063 "/></g>
<g fill="#1A0E90FE" stroke="#1A0E90FE">
<path d="M 202.250 295.704 C 203.757 296.079 204.000 297.405 204.000 305.236 C 204.000 311.918 204.700 316.939 206.636 324.142 C 208.085 329.537 209.660 333.710 210.136 333.416 C 210.611 333.122 211.000 334.372 211.000 336.194 C 211.000 338.016 211.909 342.655 213.020 346.503 C 214.131 350.351 215.223 354.865 215.447 356.533 C 216.150 361.786 217.183 365.000 218.167 365.000 C 218.690 365.000 218.846 365.440 218.514 365.978 C 218.181 366.516 218.578 369.206 219.394 371.956 C 220.284 374.951 220.502 377.190 219.940 377.537 C 219.423 377.857 219.000 378.638 219.000 379.273 C 219.000 379.996 219.559 379.869 220.494 378.935 C 221.669 377.760 221.775 376.703 220.994 373.977 C 219.617 369.177 219.738 368.038 221.709 367.281 C 222.649 366.921 224.376 365.512 225.546 364.152 C 226.915 362.560 229.248 361.423 232.087 360.964 C 236.401 360.266 236.359 360.248 230.250 360.125 C 219.582 359.912 220.000 361.303 220.000 326.000 L 220.000 296.000 217.250 296.032 C 214.622 296.062 214.586 296.128 216.432 297.525 C 217.587 298.399 218.364 300.193 218.364 301.989 L 218.364 304.991 212.317 300.498 C 208.991 298.026 204.971 295.839 203.385 295.637 C 201.798 295.435 201.288 295.465 202.250 295.704 "/></g>
<g fill="#1A0E90FE" stroke="#1A0E90FE">
<path d="M 301.234 360.834 C 300.345 361.399 301.386 362.659 304.734 365.069 L 309.500 368.500 306.226 368.815 C 303.857 369.043 301.923 368.353 299.226 366.315 C 292.055 360.897 292.729 361.000 264.455 361.000 C 248.618 361.000 238.111 361.370 238.448 361.916 C 238.759 362.420 237.123 364.686 234.811 366.953 L 230.607 371.073 264.554 370.752 C 324.873 370.180 388.372 368.962 388.943 368.366 C 389.249 368.046 372.975 368.039 352.779 368.349 C 324.212 368.789 315.773 368.638 314.779 367.670 C 314.075 366.985 311.740 365.348 309.590 364.032 C 306.163 361.935 305.916 361.546 307.590 360.890 C 309.019 360.329 308.618 360.127 306.000 360.086 C 304.075 360.055 301.930 360.392 301.234 360.834 "/></g>
<g fill="#4648EEFE" stroke="#4648EEFE">
<path d="M 372.856 100.722 C 370.852 100.934 368.420 101.984 367.451 103.054 C 365.808 104.870 364.012 105.017 340.595 105.250 C 326.793 105.388 332.770 105.500 353.878 105.500 C 391.166 105.500 392.292 105.557 393.525 107.500 C 394.719 109.382 397.905 161.683 399.526 206.000 C 400.790 240.551 401.906 253.411 403.761 254.792 C 405.405 256.015 405.426 254.807 404.154 231.793 C 403.372 217.624 402.382 207.236 401.778 206.863 C 401.209 206.511 401.058 205.716 401.441 205.095 C 401.824 204.475 402.602 204.254 403.169 204.604 C 403.876 205.041 403.877 204.638 403.170 203.318 C 402.604 202.261 401.861 191.969 401.519 180.448 C 400.572 148.619 397.918 103.718 396.865 101.750 C 396.062 100.248 394.551 100.024 386.215 100.168 C 380.872 100.261 374.860 100.510 372.856 100.722 "/></g>
<g fill="#1A0E90FE" stroke="#1A0E90FE">
<path d="M 191.868 315.816 C 192.200 319.984 192.076 320.308 190.618 319.098 C 189.728 318.359 188.966 316.348 188.924 314.628 C 188.877 312.725 188.148 314.632 187.063 319.500 C 186.081 323.900 182.934 336.180 180.069 346.789 C 177.204 357.398 175.006 366.518 175.185 367.056 C 175.364 367.593 177.259 361.275 179.396 353.016 C 181.533 344.757 183.484 338.000 183.731 338.000 C 184.525 338.000 187.932 342.464 187.967 343.550 C 187.985 344.128 191.582 348.502 195.959 353.271 C 200.337 358.040 204.617 363.292 205.470 364.941 C 207.520 368.907 212.992 372.027 211.618 368.448 C 211.229 367.434 211.425 367.144 212.181 367.612 C 212.990 368.112 213.108 367.751 212.571 366.414 C 212.149 365.361 211.561 362.700 211.266 360.500 C 210.971 358.300 210.325 355.986 209.831 355.357 C 209.337 354.728 208.797 352.703 208.632 350.857 C 207.783 341.386 204.000 331.863 204.000 339.199 C 204.000 340.917 203.593 340.680 201.663 337.835 C 195.520 328.783 192.622 321.911 192.882 317.013 C 193.023 314.367 192.769 311.975 192.319 311.697 C 191.868 311.419 191.666 313.272 191.868 315.816 "/></g>
<g fill="#7C96F4FE" stroke="#7C96F4FE">
<path d="M 90.678 195.809 L 87.041 196.118 86.771 215.809 C 86.622 226.639 86.628 246.188 86.785 259.250 L 87.070 283.000 90.381 283.000 L 93.691 283.000 94.229 270.250 C 94.524 263.238 94.664 243.550 94.540 226.500 L 94.315 195.500 90.678 195.809 "/></g>
<g fill="#1A0E90FE" stroke="#1A0E90FE">
<path d="M 468.638 294.500 C 468.322 295.325 466.924 296.000 465.531 296.000 L 463.000 296.000 463.000 307.943 L 463.000 319.885 458.750 320.319 C 456.413 320.557 460.901 320.695 468.724 320.626 C 481.626 320.512 483.137 320.310 484.992 318.454 C 488.320 315.124 488.288 312.088 484.850 305.000 C 479.586 294.148 478.504 293.000 473.539 293.000 C 470.617 293.000 469.027 293.487 468.638 294.500 "/></g>
<g fill="#90B2FAFE" stroke="#90B2FAFE">
<path d="M 399.403 82.023 C 396.198 83.011 387.000 90.472 387.000 92.085 C 387.000 93.872 390.170 92.959 393.809 90.124 C 397.388 87.335 402.815 85.000 405.719 85.000 C 406.611 85.000 407.020 85.815 406.820 87.191 C 406.592 88.749 405.489 89.637 403.000 90.264 C 401.075 90.750 398.888 91.742 398.139 92.470 C 397.001 93.577 397.279 93.902 399.848 94.467 C 403.103 95.181 408.512 100.585 410.067 104.676 C 410.580 106.026 411.000 108.917 411.000 111.100 C 411.000 114.754 411.159 114.985 412.990 114.006 C 415.859 112.470 418.276 107.205 418.254 102.536 C 418.231 97.670 419.620 95.440 421.633 97.110 C 423.569 98.717 423.345 106.807 421.248 110.980 C 420.287 112.894 417.925 115.513 416.000 116.799 C 413.976 118.152 412.500 119.968 412.500 121.108 C 412.500 122.886 412.916 122.772 416.765 119.941 C 421.357 116.565 425.395 110.464 426.478 105.267 C 428.017 97.883 422.351 87.302 414.757 83.374 C 411.085 81.475 403.382 80.797 399.403 82.023 "/></g>
<g fill="#1A0E90FE" stroke="#1A0E90FE">
<path d="M 415.000 216.798 C 415.000 220.261 418.032 276.503 418.505 281.803 L 419.067 288.107 413.783 287.803 L 408.500 287.500 406.568 252.236 C 405.505 232.841 404.366 217.408 404.037 217.940 C 403.708 218.472 403.750 223.541 404.131 229.204 C 406.018 257.304 406.037 256.090 403.747 254.865 C 401.719 253.779 401.696 253.899 402.337 262.131 C 402.695 266.734 402.991 273.280 402.994 276.679 C 402.998 281.099 403.473 283.330 404.662 284.519 C 406.067 285.924 406.106 286.320 404.912 287.075 C 404.117 287.579 363.934 288.085 313.000 288.235 C 229.374 288.480 231.765 288.517 344.490 288.718 C 460.174 288.924 466.552 289.028 467.874 290.718 C 469.205 292.418 469.240 292.416 468.635 290.668 C 468.286 289.661 468.000 288.648 468.000 288.418 C 468.000 288.188 457.238 288.000 444.085 288.000 L 420.171 288.000 419.572 280.750 C 419.242 276.763 418.283 260.692 417.440 245.037 C 416.597 229.382 415.703 216.370 415.454 216.120 C 415.204 215.871 415.000 216.176 415.000 216.798 "/></g>
<g fill="#120878FE" stroke="#120878FE">
<path d="M 440.000 296.656 C 440.000 298.245 446.321 319.585 447.016 320.345 C 447.442 320.810 451.212 320.870 455.395 320.478 L 463.000 319.765 463.000 307.883 L 463.000 296.000 451.500 296.000 C 445.175 296.000 440.000 296.295 440.000 296.656 "/></g>
<g fill="#7C96F4FE" stroke="#7C96F4FE">
<path d="M 60.000 253.940 L 60.000 283.000 64.015 283.000 L 68.031 283.000 67.765 254.250 L 67.500 225.500 63.750 225.190 L 60.000 224.879 60.000 253.940 "/></g>
<g fill="#90B2FAFE" stroke="#90B2FAFE">
<path d="M 437.417 237.250 C 435.698 242.426 424.567 263.812 420.716 269.338 C 419.090 271.672 418.835 273.241 419.281 278.167 C 419.580 281.462 420.059 284.392 420.345 284.678 C 421.140 285.474 430.030 280.289 434.298 276.541 L 438.096 273.205 436.052 269.853 C 433.018 264.878 433.490 260.102 438.115 248.958 C 441.399 241.044 442.097 238.331 441.570 235.521 C 441.207 233.584 440.516 232.000 440.035 232.000 C 439.554 232.000 438.376 234.363 437.417 237.250 "/></g>
<g fill="#7C96F4FE" stroke="#7C96F4FE">
<path d="M 167.236 219.647 L 167.500 250.293 171.250 242.805 L 175.000 235.317 175.000 212.159 L 175.000 189.000 170.986 189.000 L 166.971 189.000 167.236 219.647 "/></g>
<g fill="#FE7062FE" stroke="#FE7062FE">
<path d="M 266.585 158.242 C 262.343 159.363 253.576 167.226 254.263 169.293 C 254.554 170.167 259.959 170.575 273.856 170.772 C 296.302 171.089 297.100 170.734 290.061 163.562 C 283.966 157.351 276.421 155.641 266.585 158.242 "/></g>
<g fill="#BCD0FAFE" stroke="#BCD0FAFE">
<path d="M 413.011 156.750 C 413.017 163.213 413.301 170.188 413.642 172.250 L 414.262 176.000 419.596 176.000 C 423.846 176.000 425.140 175.607 425.965 174.066 C 427.454 171.282 427.315 147.715 425.800 146.200 C 425.140 145.540 421.990 145.000 418.800 145.000 L 413.000 145.000 413.011 156.750 "/></g>
<g fill="#120878FE" stroke="#120878FE">
<path d="M 438.092 201.841 L 435.684 203.747 438.092 205.232 C 439.416 206.049 444.424 209.083 449.220 211.975 C 454.015 214.867 458.211 218.089 458.543 219.134 C 459.227 221.292 483.659 246.000 485.107 246.000 C 486.917 246.000 487.965 241.199 486.853 238.007 C 485.590 234.386 481.497 232.000 476.550 232.000 C 472.529 232.000 472.419 231.817 474.515 228.618 C 475.902 226.501 475.853 226.083 473.942 223.653 C 472.336 221.612 470.977 221.000 468.044 221.000 C 465.066 221.000 464.118 220.560 463.707 218.987 C 463.417 217.879 461.620 216.322 459.714 215.525 C 457.259 214.499 455.801 212.971 454.717 210.288 C 451.412 202.110 443.094 197.884 438.092 201.841 "/></g>
<g fill="#7C96F4FE" stroke="#7C96F4FE">
<path d="M 113.867 208.750 C 113.665 209.713 113.736 226.925 114.025 247.000 C 114.313 267.075 114.651 282.736 114.775 281.801 C 114.899 280.867 115.668 275.017 116.485 268.801 C 117.302 262.586 118.665 254.841 119.514 251.591 C 120.637 247.291 121.055 240.668 121.050 227.279 C 121.046 217.158 120.781 208.455 120.462 207.939 C 119.405 206.229 114.262 206.862 113.867 208.750 "/></g>
<g fill="#FE928EFE" stroke="#FE928EFE">
<path d="M 408.188 333.210 C 406.521 337.219 403.702 345.000 401.924 350.500 C 400.147 356.000 398.327 361.500 397.880 362.722 C 397.434 363.944 394.497 366.419 391.354 368.222 L 385.639 371.500 390.503 371.239 C 393.178 371.096 397.068 370.520 399.148 369.960 C 402.601 369.030 402.850 368.735 402.019 366.549 C 401.235 364.487 402.001 362.994 407.551 355.767 C 412.889 348.817 414.315 346.115 415.867 340.006 L 417.739 332.632 414.480 329.276 L 411.220 325.920 408.188 333.210 "/></g>
<g fill="#BCD0FAFE" stroke="#BCD0FAFE">
<path d="M 437.607 146.582 C 437.273 147.452 437.000 153.887 437.000 160.882 C 437.000 174.103 437.543 176.000 441.322 176.000 C 443.010 176.000 443.077 176.214 441.872 177.750 C 440.626 179.339 440.662 179.373 442.262 178.117 C 443.607 177.063 443.758 176.413 442.900 175.379 C 442.041 174.344 442.154 173.878 443.380 173.408 C 444.502 172.977 444.804 172.069 444.384 170.396 C 443.915 168.526 444.191 167.983 445.642 167.921 C 446.694 167.876 446.958 167.623 446.250 167.338 C 445.563 167.060 445.000 165.941 445.000 164.849 C 445.000 163.411 445.484 163.019 446.759 163.423 C 448.164 163.869 448.996 162.747 450.897 157.845 C 452.206 154.470 453.617 150.199 454.033 148.354 L 454.789 145.000 446.502 145.000 C 439.867 145.000 438.093 145.315 437.607 146.582 "/></g>
<g fill="#FE7062FE" stroke="#FE7062FE">
<path d="M 112.000 316.288 C 108.578 318.011 108.138 322.283 111.165 324.403 C 113.078 325.743 116.842 326.000 134.568 326.000 C 153.761 326.000 155.841 325.833 157.345 324.171 C 161.341 319.756 158.527 319.000 138.086 319.000 C 125.397 319.000 122.895 318.731 119.500 317.000 C 114.896 314.653 115.192 314.681 112.000 316.288 "/></g>
<g fill="#BCD0FAFE" stroke="#BCD0FAFE">
<path d="M 465.580 145.500 C 467.072 153.056 468.844 164.047 469.489 169.750 L 470.196 176.000 474.063 176.000 C 479.357 176.000 480.003 174.345 479.986 160.816 C 479.967 144.720 480.100 145.000 472.467 145.000 C 468.408 145.000 465.957 144.555 465.577 143.750 C 465.253 143.063 465.255 143.850 465.580 145.500 "/></g>
<g fill="#FE928EFE" stroke="#FE928EFE">
<path d="M 426.934 322.250 C 426.897 324.588 426.063 328.967 425.078 331.982 C 422.960 338.471 423.471 341.198 428.673 351.157 C 431.729 357.008 432.067 358.373 431.460 362.419 C 430.795 366.849 430.858 367.009 433.135 366.666 C 435.039 366.379 435.772 365.303 436.897 361.146 C 438.123 356.615 438.108 355.769 436.775 354.241 C 435.668 352.972 435.110 349.172 434.721 340.236 C 434.297 330.488 433.761 327.154 432.110 323.986 C 430.967 321.794 430.501 320.000 431.075 320.000 C 431.649 320.000 431.840 319.550 431.500 319.000 C 431.160 318.450 430.009 318.000 428.941 318.000 C 427.335 318.000 426.989 318.732 426.934 322.250 "/></g>
<g fill="#1A0E90FE" stroke="#1A0E90FE">
<path d="M 275.250 81.287 C 274.563 81.899 274.000 84.110 274.000 86.200 L 274.000 90.000 263.500 90.000 C 257.167 90.000 253.000 90.397 253.000 91.000 C 253.000 91.550 252.499 91.887 251.887 91.750 C 251.275 91.613 250.621 92.400 250.435 93.500 C 250.162 95.116 251.812 96.412 259.027 100.250 L 267.957 105.000 280.229 104.990 L 292.500 104.980 287.022 102.431 C 284.009 101.028 281.309 99.524 281.022 99.089 C 280.735 98.653 277.350 96.657 273.500 94.655 C 266.574 91.051 266.539 91.013 270.191 91.006 C 274.407 90.999 275.505 89.790 275.179 85.514 C 275.053 83.856 275.298 81.977 275.725 81.337 C 276.299 80.475 276.176 80.462 275.250 81.287 "/></g>
<g fill="#4648EEFE" stroke="#4648EEFE">
<path d="M 447.000 321.978 C 447.000 322.376 447.460 324.021 448.022 325.634 C 449.014 328.478 449.352 328.608 459.272 329.957 C 464.897 330.722 472.200 331.382 475.500 331.424 C 481.384 331.499 481.506 331.445 481.828 328.629 C 482.009 327.050 481.881 324.663 481.545 323.325 L 480.935 320.892 463.967 321.073 C 454.635 321.172 447.000 321.579 447.000 321.978 "/></g>
<g fill="#BCD0FAFE" stroke="#BCD0FAFE">
<path d="M 188.022 345.500 C 187.881 348.933 183.779 366.562 182.864 367.664 C 181.960 368.753 182.855 369.000 187.711 369.000 C 196.165 369.000 205.000 367.083 205.000 365.248 C 205.000 363.207 195.138 352.000 193.342 352.000 C 192.539 352.000 192.140 351.583 192.455 351.072 C 192.771 350.562 191.911 348.875 190.546 347.322 C 189.180 345.770 188.045 344.950 188.022 345.500 "/></g>
<g fill="#BCD0FAFE" stroke="#BCD0FAFE">
<path d="M 436.000 320.531 C 436.000 321.374 435.333 322.319 434.518 322.631 C 433.318 323.092 433.260 323.608 434.212 325.350 C 434.858 326.532 435.576 333.125 435.806 340.000 C 436.037 346.875 436.680 353.063 437.235 353.750 C 437.790 354.438 439.315 355.000 440.622 355.000 C 442.595 355.000 443.000 355.509 443.000 357.984 L 443.000 360.968 446.530 359.284 C 448.834 358.186 449.870 357.104 449.512 356.172 C 449.211 355.386 448.467 352.770 447.860 350.359 L 446.756 345.975 444.150 349.995 C 442.717 352.206 441.193 353.898 440.765 353.755 C 440.035 353.512 444.823 345.823 446.078 345.224 C 446.396 345.072 445.974 342.332 445.141 339.135 C 443.975 334.660 442.979 332.951 440.813 331.708 C 438.617 330.447 438.003 329.370 438.015 326.797 C 438.024 324.983 438.450 322.837 438.963 322.026 C 439.577 321.055 439.487 320.294 438.697 319.792 C 436.853 318.619 436.000 318.853 436.000 320.531 "/></g>
<g fill="#7C96F4FE" stroke="#7C96F4FE">
<path d="M 73.131 264.693 L 73.500 283.386 77.250 283.117 L 81.000 282.847 81.000 264.424 L 81.000 246.000 76.881 246.000 L 72.763 246.000 73.131 264.693 "/></g>
<g fill="#BCD0FAFE" stroke="#BCD0FAFE">
<path d="M 459.019 130.965 C 458.095 132.690 456.717 132.965 447.733 133.215 C 437.907 133.489 437.487 133.592 437.173 135.805 C 436.574 140.030 438.536 141.000 447.681 141.000 C 453.804 141.000 455.922 141.317 455.405 142.155 C 454.993 142.820 455.127 143.039 455.720 142.673 C 456.287 142.323 456.750 140.977 456.750 139.683 C 456.750 137.168 459.800 130.000 460.870 130.000 C 461.934 130.000 464.334 136.195 464.331 138.937 C 464.328 141.471 464.407 141.496 471.173 141.168 C 478.563 140.809 480.446 139.422 479.332 135.162 C 478.814 133.180 478.119 133.000 471.000 133.000 C 464.074 133.000 463.177 132.783 462.710 131.000 C 462.044 128.453 460.372 128.437 459.019 130.965 "/></g>
<g fill="#4648EEFE" stroke="#4648EEFE">
<path d="M 220.200 93.200 C 218.668 94.732 218.507 117.000 220.028 117.000 C 220.694 117.000 220.823 114.724 220.393 110.532 C 219.647 103.247 221.025 98.444 224.147 97.453 C 225.842 96.915 239.947 98.225 247.026 99.578 C 248.415 99.843 249.990 101.059 250.526 102.280 C 251.412 104.300 252.202 104.500 259.287 104.500 L 267.074 104.500 258.787 100.092 C 254.229 97.668 250.275 95.395 250.000 95.042 C 249.389 94.256 231.053 91.977 225.450 91.990 C 223.223 91.996 220.860 92.540 220.200 93.200 "/></g>
<g fill="#120878FE" stroke="#120878FE">
<path d="M 143.000 197.960 C 141.153 199.175 141.027 205.001 142.808 206.879 C 143.527 207.637 143.878 208.875 143.589 209.629 C 143.300 210.383 143.463 211.000 143.952 211.000 C 144.795 211.000 146.402 215.975 146.479 218.826 C 146.499 219.555 146.779 219.888 147.102 219.565 C 147.424 219.242 148.388 220.761 149.244 222.939 C 150.369 225.804 150.482 227.030 149.650 227.371 C 148.449 227.863 149.822 228.056 156.500 228.334 C 159.734 228.468 160.484 228.165 160.417 226.750 C 159.982 217.627 160.106 218.000 157.500 218.000 C 156.125 218.000 155.000 218.450 155.000 219.000 C 155.000 219.550 153.848 220.000 152.441 220.000 C 150.990 220.000 150.149 219.567 150.500 219.000 C 150.840 218.450 150.607 218.000 149.983 218.000 C 149.273 218.000 148.947 216.397 149.113 213.709 C 149.258 211.349 149.086 208.948 148.730 208.372 C 147.981 207.161 150.777 202.744 151.866 203.417 C 153.349 204.334 154.907 202.361 154.358 200.263 C 153.951 198.703 153.051 198.116 151.146 198.167 C 149.691 198.205 147.600 197.952 146.500 197.605 C 145.400 197.258 143.825 197.418 143.000 197.960 "/></g>
<g fill="#4042E2FE" stroke="#4042E2FE">
<path d="M 114.083 334.750 C 111.927 349.157 109.055 377.280 109.642 378.230 C 109.963 378.749 110.601 378.798 111.060 378.337 C 111.761 377.634 120.000 331.312 120.000 328.074 C 120.000 327.483 118.930 327.000 117.622 327.000 C 115.421 327.000 115.156 327.581 114.083 334.750 "/></g>
<g fill="#FE7062FE" stroke="#FE7062FE">
<path d="M 187.122 240.366 L 182.743 241.536 178.912 254.518 C 174.580 269.198 174.619 269.000 176.064 269.000 C 176.649 269.000 178.111 266.761 179.314 264.024 C 181.698 258.597 184.497 257.037 183.395 261.750 C 182.825 264.188 182.921 264.330 184.238 263.000 C 185.055 262.175 187.094 257.225 188.769 252.000 C 190.444 246.775 192.130 241.713 192.514 240.750 C 193.306 238.769 193.143 238.757 187.122 240.366 "/></g>
<g fill="#4042E2FE" stroke="#4042E2FE">
<path d="M 148.000 328.074 C 148.000 330.233 156.094 377.343 156.608 378.175 C 157.934 380.320 158.851 377.473 158.365 372.722 C 157.222 361.561 154.925 342.141 153.873 334.750 C 152.849 327.558 152.598 327.000 150.385 327.000 C 149.073 327.000 148.000 327.483 148.000 328.074 "/></g>
<g fill="#120878FE" stroke="#120878FE">
<path d="M 214.500 96.178 C 209.681 98.871 205.000 106.537 205.000 111.735 C 205.000 115.021 205.743 115.501 210.161 115.067 C 211.075 114.978 212.077 115.315 212.388 115.818 C 212.698 116.321 214.088 116.515 215.476 116.249 C 217.982 115.770 218.000 115.691 218.000 105.383 C 218.000 99.673 217.663 95.014 217.250 95.030 C 216.838 95.047 215.600 95.564 214.500 96.178 "/></g>
<g fill="#BCD0FAFE" stroke="#BCD0FAFE">
<path d="M 423.000 350.451 L 423.000 360.235 419.105 364.130 C 416.963 366.272 414.935 369.122 414.599 370.463 C 414.009 372.813 414.103 372.863 417.243 371.862 C 419.035 371.291 421.175 370.567 422.000 370.253 C 422.825 369.939 423.838 369.754 424.250 369.841 C 424.663 369.929 425.000 369.602 425.000 369.117 C 425.000 367.750 428.855 367.065 429.285 368.355 C 429.495 368.984 429.966 366.950 430.332 363.835 C 430.928 358.763 430.625 357.302 427.440 349.860 C 425.484 345.290 423.684 341.351 423.442 341.108 C 423.199 340.865 423.000 345.070 423.000 350.451 "/></g>
<g fill="#FE928EFE" stroke="#FE928EFE">
<path d="M 477.500 282.108 C 473.892 283.311 467.116 284.379 460.500 284.788 C 451.649 285.335 450.477 285.569 454.500 285.984 C 457.250 286.268 461.393 286.237 463.707 285.915 C 466.021 285.593 467.721 285.643 467.485 286.025 C 467.249 286.407 467.606 287.904 468.278 289.352 C 469.419 291.810 469.943 291.985 476.194 291.992 C 481.717 291.999 483.337 291.606 485.452 289.750 C 487.839 287.654 487.935 287.243 486.840 283.750 C 486.193 281.688 485.177 280.024 484.582 280.054 C 483.987 280.083 480.800 281.008 477.500 282.108 "/></g>
<g fill="#BCD0FAFE" stroke="#BCD0FAFE">
<path d="M 162.425 298.855 C 163.752 301.421 164.690 301.832 171.701 302.923 C 175.990 303.591 180.921 304.509 182.658 304.963 C 185.749 305.771 185.839 305.696 186.908 301.451 C 187.509 299.066 188.000 296.864 188.000 296.557 C 188.000 296.251 181.913 296.000 174.474 296.000 L 160.949 296.000 162.425 298.855 "/></g>
<g fill="#FE928EFE" stroke="#FE928EFE">
<path d="M 137.311 224.253 C 134.415 230.814 134.264 231.634 135.665 233.182 C 137.489 235.198 142.172 236.398 144.873 235.540 C 146.049 235.167 147.031 233.646 147.414 231.605 C 148.189 227.477 146.331 218.350 144.703 218.286 C 144.041 218.260 142.825 217.966 142.000 217.633 C 140.886 217.184 139.680 218.886 137.311 224.253 "/></g>
<g fill="#120878FE" stroke="#120878FE">
<path d="M 409.592 308.250 C 409.909 314.988 410.372 321.142 410.620 321.927 C 410.872 322.719 412.371 320.607 413.994 317.177 C 415.601 313.780 416.524 311.000 416.046 311.000 C 415.568 311.000 415.328 310.213 415.512 309.250 C 415.696 308.288 415.881 307.163 415.923 306.750 C 415.966 306.338 416.675 306.000 417.500 306.000 C 418.325 306.000 419.000 305.502 419.000 304.893 C 419.000 304.264 419.731 304.066 420.694 304.436 C 422.286 305.047 422.286 304.973 420.694 303.214 C 419.762 302.185 419.000 300.140 419.000 298.671 C 419.000 296.133 418.751 296.000 414.008 296.000 L 409.017 296.000 409.592 308.250 "/></g>
<g fill="#4648EEFE" stroke="#4648EEFE">
<path d="M 156.538 252.593 C 156.874 254.742 156.722 258.375 156.200 260.666 L 155.250 264.833 161.011 265.501 C 165.372 266.007 167.527 265.779 169.885 264.559 C 171.598 263.673 172.995 262.623 172.988 262.224 C 172.982 261.826 170.619 259.813 167.738 257.751 C 164.857 255.688 161.021 252.805 159.213 251.344 L 155.926 248.687 156.538 252.593 "/></g>
<g fill="#FE928EFE" stroke="#FE928EFE">
<path d="M 435.790 214.314 C 434.896 216.190 433.858 219.767 433.483 222.263 C 432.902 226.139 433.124 227.124 435.001 229.001 C 437.664 231.664 438.008 231.361 442.422 222.468 C 445.432 216.406 445.712 215.240 444.577 213.500 C 443.860 212.400 441.955 211.366 440.345 211.202 C 437.869 210.950 437.164 211.432 435.790 214.314 "/></g>
<g fill="#0C0264FE" stroke="#0C0264FE">
<path d="M 179.903 352.031 L 176.306 366.039 178.726 366.646 C 180.057 366.980 181.531 366.859 182.000 366.377 C 183.273 365.070 187.003 349.672 186.978 345.833 C 186.966 344.000 186.178 341.493 185.228 340.261 C 183.535 338.067 183.428 338.303 179.903 352.031 "/></g>
<g fill="#BCD0FAFE" stroke="#BCD0FAFE">
<path d="M 432.242 278.393 C 428.799 280.797 424.637 283.322 422.992 284.003 C 417.921 286.104 419.210 288.000 425.708 288.000 C 430.906 288.000 431.743 287.680 435.082 284.420 L 438.748 280.840 443.124 282.245 L 447.500 283.651 443.500 278.911 C 441.300 276.304 439.275 274.138 439.000 274.096 C 438.725 274.055 435.684 275.989 432.242 278.393 "/></g>
<g fill="#7C96F4FE" stroke="#7C96F4FE">
<path d="M 99.807 268.250 C 99.638 270.588 99.654 274.863 99.843 277.750 L 100.185 283.000 104.093 283.000 L 108.000 283.000 108.000 273.500 L 108.000 264.000 104.057 264.000 C 100.134 264.000 100.114 264.021 99.807 268.250 "/></g>
<g fill="#BCD0FAFE" stroke="#BCD0FAFE">
<path d="M 196.000 312.133 C 196.000 317.340 195.535 322.065 194.967 322.633 C 194.256 323.344 195.426 326.292 198.717 332.083 L 203.500 340.500 203.800 336.399 C 204.056 332.909 197.747 304.414 196.427 303.093 C 196.192 302.859 196.000 306.927 196.000 312.133 "/></g>
<g fill="#1A0E90FE" stroke="#1A0E90FE">
<path d="M 154.244 194.417 C 152.055 197.200 150.430 197.707 147.201 196.613 C 143.694 195.425 139.640 198.429 140.441 201.623 C 140.842 203.219 140.502 204.641 139.472 205.671 C 138.554 206.589 138.169 207.941 138.558 208.879 C 138.928 209.771 139.348 212.525 139.489 215.000 C 139.631 217.475 139.868 218.825 140.015 218.000 C 140.598 214.737 140.460 211.412 139.670 209.667 C 139.111 208.432 139.372 207.246 140.469 206.034 C 141.543 204.847 141.881 203.373 141.461 201.700 C 140.634 198.405 144.031 196.238 147.526 197.830 C 148.776 198.399 150.744 198.618 151.899 198.316 C 153.308 197.948 154.000 198.236 154.000 199.192 C 154.000 203.242 160.633 206.224 163.428 203.429 C 165.729 201.128 165.349 197.258 162.545 194.455 C 159.438 191.347 156.669 191.335 154.244 194.417 "/></g>
<g fill="#4042E2FE" stroke="#4042E2FE">
<path d="M 172.605 240.945 C 171.172 244.138 170.000 247.108 170.000 247.546 C 170.000 247.984 169.344 249.068 168.541 249.954 C 167.242 251.390 167.451 251.860 170.450 254.252 C 176.016 258.694 176.234 258.494 177.998 247.320 L 179.604 237.141 177.407 236.140 C 175.394 235.223 174.993 235.624 172.605 240.945 "/></g>
<g fill="#FE928EFE" stroke="#FE928EFE">
<path d="M 182.287 223.250 C 180.579 225.038 178.490 228.185 177.645 230.244 C 176.194 233.776 176.217 234.046 178.054 235.029 C 179.565 235.838 180.000 235.747 180.000 234.623 C 180.000 233.687 181.500 232.952 184.250 232.542 C 193.133 231.216 198.000 229.774 198.000 228.468 C 198.000 226.963 196.554 226.447 189.750 225.523 C 185.200 224.905 183.859 223.823 186.000 222.500 C 187.195 221.761 187.334 220.000 186.196 220.000 C 185.754 220.000 183.995 221.463 182.287 223.250 "/></g>
<g fill="#1A0E90FE" stroke="#1A0E90FE">
<path d="M 442.104 307.068 C 442.047 307.931 442.708 311.081 443.573 314.068 C 444.437 317.056 446.005 322.449 447.057 326.054 L 448.968 332.608 452.734 332.624 C 454.805 332.632 457.502 333.181 458.728 333.843 C 460.887 335.010 460.964 335.600 461.252 353.273 L 461.548 371.500 461.772 352.000 L 461.995 332.500 470.748 332.650 C 480.446 332.815 479.270 332.535 459.226 329.904 L 448.952 328.555 447.057 322.028 C 442.799 307.364 442.204 305.567 442.104 307.068 "/></g>
<g fill="#FE7062FE" stroke="#FE7062FE">
<path d="M 263.396 137.559 C 262.377 141.617 265.322 146.819 269.663 148.633 C 272.777 149.934 273.817 149.960 276.824 148.816 C 280.551 147.397 282.265 145.000 279.552 145.000 C 278.664 145.000 277.678 144.325 277.362 143.500 C 277.045 142.675 276.145 142.000 275.362 142.000 C 274.578 142.000 273.678 141.325 273.362 140.500 C 273.045 139.675 272.116 139.000 271.297 139.000 C 270.479 139.000 268.516 138.079 266.935 136.954 L 264.061 134.907 263.396 137.559 "/></g>
<g fill="#4042E2FE" stroke="#4042E2FE">
<path d="M 458.088 349.197 C 458.022 359.501 458.436 365.970 459.353 369.000 L 460.715 373.500 468.858 373.790 C 473.804 373.967 477.000 373.689 477.000 373.083 C 477.000 372.529 473.547 371.954 469.250 371.792 L 461.500 371.500 461.000 353.082 C 460.656 340.414 460.139 334.544 459.342 334.279 C 458.502 334.000 458.158 338.088 458.088 349.197 "/></g>
<g fill="#FE928EFE" stroke="#FE928EFE">
<path d="M 151.200 205.200 C 149.845 206.555 149.593 215.810 150.858 217.804 C 151.537 218.875 152.429 218.876 155.842 217.811 L 160.000 216.513 160.000 210.882 C 160.000 205.374 159.931 205.236 156.875 204.625 C 152.729 203.796 152.590 203.810 151.200 205.200 "/></g>
<g fill="#FE7062FE" stroke="#FE7062FE">
<path d="M 268.683 130.607 C 266.399 131.845 266.091 132.405 267.056 133.567 C 267.710 134.355 269.104 135.000 270.154 135.000 C 271.204 135.000 272.322 135.675 272.638 136.500 C 272.955 137.325 273.856 138.000 274.641 138.000 C 275.425 138.000 277.387 139.350 279.000 141.000 C 280.613 142.650 282.124 144.000 282.358 144.000 C 282.592 144.000 283.065 142.879 283.409 141.508 C 284.417 137.491 281.589 132.144 277.568 130.464 C 273.255 128.662 272.241 128.678 268.683 130.607 "/></g>
<g fill="#BCD0FAFE" stroke="#BCD0FAFE">
<path d="M 95.096 232.185 C 95.043 237.511 95.695 245.161 96.544 249.185 C 97.393 253.208 98.246 257.841 98.439 259.480 L 98.791 262.460 96.896 260.119 L 95.000 257.778 95.000 260.780 C 95.000 262.431 95.890 265.743 96.978 268.141 L 98.956 272.500 98.978 268.218 C 98.995 264.950 99.448 263.765 100.891 263.218 C 102.741 262.515 102.742 262.370 100.923 256.500 C 99.901 253.200 98.193 244.200 97.128 236.500 L 95.192 222.500 95.096 232.185 "/></g>
<g fill="#7C96F4FE" stroke="#7C96F4FE">
<path d="M 193.925 274.250 L 193.733 283.500 197.366 283.190 L 201.000 282.879 201.000 273.940 L 201.000 265.000 197.559 265.000 L 194.117 265.000 193.925 274.250 "/></g>
<g fill="#7C96F4FE" stroke="#7C96F4FE">
<path d="M 154.211 237.194 C 154.490 244.963 154.616 245.341 157.750 247.754 L 161.000 250.256 160.996 239.878 L 160.991 229.500 157.456 229.318 L 153.921 229.137 154.211 237.194 "/></g>
<g fill="#FE928EFE" stroke="#FE928EFE">
<path d="M 494.472 100.087 C 492.662 105.793 497.788 115.248 504.391 118.381 C 508.882 120.512 513.532 120.396 518.765 118.020 C 523.321 115.952 524.974 113.574 523.133 111.733 C 522.306 110.906 522.000 110.902 522.000 111.718 C 522.000 113.902 515.377 117.000 510.709 117.000 C 502.900 117.000 496.267 109.502 497.295 101.837 C 497.863 97.602 495.689 96.253 494.472 100.087 "/></g>
<g fill="#BCD0FAFE" stroke="#BCD0FAFE">
<path d="M 412.297 136.493 L 412.500 140.986 418.771 140.993 C 424.569 140.999 425.133 140.802 426.235 138.383 C 428.003 134.503 424.552 132.000 417.436 132.000 L 412.093 132.000 412.297 136.493 "/></g>
<g fill="#1A0E90FE" stroke="#1A0E90FE">
<path d="M 180.525 246.000 C 179.659 249.350 179.593 249.393 178.975 247.000 C 178.489 245.114 178.143 246.036 177.567 250.752 C 177.147 254.190 176.451 257.221 176.021 257.487 C 175.590 257.753 173.527 256.611 171.436 254.949 C 169.344 253.287 167.017 252.163 166.265 252.452 C 165.512 252.741 165.145 252.574 165.449 252.082 C 165.754 251.589 165.091 251.425 163.976 251.717 C 162.671 252.058 161.293 251.490 160.107 250.123 C 159.094 248.956 157.868 247.994 157.383 247.986 C 156.897 247.978 156.050 247.568 155.500 247.075 C 154.950 246.582 156.514 248.162 158.975 250.586 C 161.436 253.011 165.601 256.458 168.231 258.247 C 171.433 260.426 172.825 261.995 172.447 263.000 C 171.985 264.225 172.119 264.264 173.179 263.212 C 173.893 262.503 174.526 261.378 174.586 260.712 C 174.742 258.979 175.264 261.060 175.392 263.928 C 175.499 266.342 181.081 247.872 181.310 244.345 C 181.376 243.330 181.023 244.075 180.525 246.000 "/></g>
<g fill="#0C0264FE" stroke="#0C0264FE">
<path d="M 182.000 371.000 C 181.175 371.533 179.038 371.976 177.250 371.985 C 175.035 371.995 174.000 372.478 174.000 373.500 C 174.000 374.372 174.907 375.000 176.167 375.000 C 177.358 375.000 178.039 375.294 177.680 375.653 C 176.883 376.450 189.784 376.059 196.000 375.097 L 200.500 374.401 195.805 372.201 C 190.894 369.899 184.557 369.348 182.000 371.000 "/></g>
<g fill="#FE9A96FE" stroke="#FE9A96FE">
<path d="M 414.518 316.842 C 410.969 324.197 410.937 325.485 414.211 329.070 C 417.649 332.834 417.978 332.567 420.039 324.341 C 421.283 319.374 421.238 319.071 418.807 316.183 L 416.283 313.183 414.518 316.842 "/></g>
<g fill="#7C96F4FE" stroke="#7C96F4FE">
<path d="M 180.928 214.383 L 180.736 223.885 183.521 220.978 C 185.053 219.379 186.709 218.320 187.201 218.624 C 187.704 218.935 187.965 216.186 187.798 212.339 L 187.500 205.500 184.310 205.191 L 181.120 204.882 180.928 214.383 "/></g>
<g fill="#4042E2FE" stroke="#4042E2FE">
<path d="M 405.345 312.129 C 405.705 318.831 406.025 326.606 406.056 329.407 L 406.112 334.500 407.909 330.067 C 409.233 326.802 409.605 323.774 409.319 318.567 C 408.567 304.888 407.945 301.193 406.283 300.555 C 404.857 300.008 404.759 301.226 405.345 312.129 "/></g>
<g fill="#7C96F4FE" stroke="#7C96F4FE">
<path d="M 154.000 186.122 C 154.000 193.216 154.189 194.088 155.495 193.004 C 156.317 192.322 157.892 192.000 158.995 192.288 C 160.868 192.778 161.000 192.327 161.000 185.406 L 161.000 178.000 157.500 178.000 L 154.000 178.000 154.000 186.122 "/></g>
<g fill="#0A0056FE" stroke="#0A0056FE">
<path d="M 230.088 362.091 C 227.679 363.054 220.003 369.935 220.001 371.133 C 220.000 371.482 221.238 372.008 222.750 372.303 C 224.638 372.672 226.147 372.238 227.564 370.920 C 228.700 369.864 230.078 369.000 230.627 369.000 C 231.177 369.000 232.884 367.687 234.422 366.081 C 238.536 361.787 236.208 359.644 230.088 362.091 "/></g>
<g fill="#0C0264FE" stroke="#0C0264FE">
<path d="M 160.000 304.597 C 164.675 305.930 170.324 307.247 172.553 307.524 C 174.783 307.800 178.109 308.458 179.946 308.984 C 183.564 310.022 185.000 309.621 185.000 307.572 C 185.000 306.663 180.905 305.608 171.637 304.131 C 153.458 301.232 148.845 301.417 160.000 304.597 "/></g>
<g fill="#BCD0FAFE" stroke="#BCD0FAFE">
<path d="M 451.085 339.750 C 452.155 343.463 453.494 348.201 454.062 350.280 C 455.775 356.558 457.000 353.465 457.000 342.858 C 457.000 335.293 456.693 332.931 455.750 333.231 C 455.063 333.450 454.056 334.613 453.513 335.815 C 452.970 337.017 452.182 338.000 451.763 338.000 C 450.735 338.000 450.802 337.238 452.035 334.934 C 452.895 333.327 452.738 333.000 451.106 333.000 C 449.155 333.000 449.155 333.047 451.085 339.750 "/></g>
<g fill="#BCD0FAFE" stroke="#BCD0FAFE">
<path d="M 59.250 246.250 C 59.113 257.663 58.769 267.000 58.486 267.000 C 58.204 267.000 57.099 266.455 56.032 265.788 C 52.669 263.688 52.446 265.923 55.447 271.656 C 57.042 274.701 58.615 278.837 58.943 280.846 C 59.272 282.856 59.531 271.225 59.520 255.000 C 59.509 238.433 59.390 234.597 59.250 246.250 "/></g>
<g fill="#120878FE" stroke="#120878FE">
<path d="M 401.000 370.148 C 401.000 370.745 400.100 370.998 399.000 370.710 C 397.900 370.423 397.000 370.529 397.000 370.946 C 397.000 371.363 394.020 371.756 390.377 371.818 C 385.819 371.895 382.936 372.487 381.127 373.715 C 378.536 375.475 378.644 375.496 389.000 375.231 C 394.775 375.084 400.513 374.738 401.750 374.462 C 404.318 373.891 404.840 370.536 402.500 369.638 C 401.675 369.322 401.000 369.551 401.000 370.148 "/></g>
<g fill="#7C96F4FE" stroke="#7C96F4FE">
<path d="M 129.250 220.788 C 127.165 221.113 127.000 221.651 127.000 228.126 L 127.000 235.113 130.982 231.806 C 134.276 229.072 134.967 227.872 134.982 224.867 C 135.001 221.010 133.710 220.092 129.250 220.788 "/></g>
<g fill="#120878FE" stroke="#120878FE">
<path d="M 411.014 352.977 C 409.691 355.118 407.684 357.175 406.554 357.550 C 405.343 357.952 405.097 358.286 405.956 358.365 C 406.847 358.448 406.339 359.203 404.645 360.313 C 400.754 362.862 401.324 366.386 405.695 366.809 C 408.639 367.094 408.972 366.818 409.917 363.309 C 410.482 361.214 411.615 357.271 412.435 354.547 C 413.256 351.822 413.812 349.479 413.673 349.340 C 413.533 349.200 412.337 350.837 411.014 352.977 "/></g>
<g fill="#FEB2B0FE" stroke="#FEB2B0FE">
<path d="M 435.500 284.563 L 431.637 288.000 440.787 288.000 C 448.289 288.000 449.839 287.744 449.391 286.577 C 449.091 285.795 448.318 284.936 447.673 284.668 C 447.028 284.401 444.894 283.494 442.932 282.653 C 439.398 281.140 439.328 281.158 435.500 284.563 "/></g>
<g fill="#7C96F4FE" stroke="#7C96F4FE">
<path d="M 185.831 269.000 C 184.914 270.375 183.651 273.441 183.026 275.813 C 182.401 278.184 181.641 280.772 181.338 281.563 C 180.920 282.651 181.673 283.000 184.433 283.000 L 188.081 283.000 187.790 274.750 C 187.506 266.676 187.464 266.553 185.831 269.000 "/></g>
<g fill="#1A0E90FE" stroke="#1A0E90FE">
<path d="M 452.500 86.502 C 448.534 87.904 442.000 93.898 442.000 96.133 C 442.000 96.773 443.014 95.791 444.253 93.952 C 447.699 88.839 458.000 83.930 458.000 87.401 C 458.000 88.193 456.671 89.133 455.047 89.490 C 443.007 92.134 440.149 108.603 450.608 115.067 C 453.391 116.786 455.180 117.092 460.511 116.759 C 464.090 116.535 466.768 116.101 466.461 115.795 C 466.155 115.489 463.057 115.467 459.576 115.746 C 453.458 116.237 453.123 116.140 449.495 112.815 C 446.350 109.933 445.668 108.576 445.282 104.438 C 444.647 97.628 447.681 93.086 454.260 91.000 C 458.050 89.798 458.991 89.053 458.995 87.250 C 459.001 84.659 458.029 84.547 452.500 86.502 "/></g>
<g fill="#FE928EFE" stroke="#FE928EFE">
<path d="M 260.371 269.142 C 259.750 269.889 258.230 272.507 256.994 274.959 L 254.746 279.419 252.585 276.709 C 251.397 275.219 250.104 274.000 249.712 274.000 C 248.019 274.000 249.211 279.126 251.502 281.694 C 253.974 284.466 254.024 284.476 255.581 282.500 C 258.181 279.200 260.852 273.508 261.186 270.556 C 261.432 268.383 261.256 268.077 260.371 269.142 "/></g>
<g fill="#FE7468FE" stroke="#FE7468FE">
<path d="M 441.000 105.336 C 441.000 108.291 447.072 115.996 450.967 117.983 C 455.967 120.534 461.723 120.386 463.177 117.670 C 463.982 116.165 463.916 115.934 462.864 116.584 C 460.875 117.813 454.985 117.153 450.874 115.239 C 448.295 114.038 446.708 112.323 445.374 109.296 C 443.535 105.120 441.000 102.825 441.000 105.336 "/></g>
<g fill="#1A0E90FE" stroke="#1A0E90FE">
<path d="M 405.957 100.213 C 408.323 103.564 409.427 106.390 409.773 109.984 C 410.040 112.766 410.597 115.251 411.012 115.507 C 411.426 115.763 412.907 115.074 414.304 113.976 C 417.247 111.661 420.123 104.710 419.754 100.804 C 419.615 99.322 419.950 98.197 420.500 98.304 C 421.050 98.412 421.500 100.986 421.499 104.025 C 421.499 108.176 420.946 110.290 419.276 112.525 C 418.053 114.161 417.661 115.169 418.405 114.764 C 422.255 112.672 424.643 99.609 421.633 97.110 C 419.620 95.440 418.231 97.670 418.254 102.536 C 418.276 107.205 415.859 112.470 412.990 114.006 C 411.168 114.981 410.998 114.751 410.978 111.285 C 410.951 106.697 408.122 100.222 404.955 97.500 C 403.189 95.982 403.431 96.637 405.957 100.213 "/></g>
<g fill="#FE928EFE" stroke="#FE928EFE">
<path d="M 258.193 324.250 L 254.887 331.500 252.488 328.539 C 251.168 326.911 249.742 325.925 249.318 326.349 C 248.196 327.470 252.236 334.500 254.002 334.500 C 256.033 334.500 260.987 325.013 261.271 320.580 C 261.475 317.388 261.141 317.787 258.193 324.250 "/></g>
<g fill="#FE928EFE" stroke="#FE928EFE">
<path d="M 419.505 97.993 C 419.156 98.557 419.169 99.958 419.534 101.107 C 420.525 104.230 417.277 111.638 413.683 114.451 C 411.359 116.270 410.819 117.219 411.639 118.039 C 412.459 118.859 413.741 118.142 416.487 115.327 C 420.948 110.754 422.000 108.305 422.000 102.494 C 422.000 98.203 420.759 95.964 419.505 97.993 "/></g>
<g fill="#BCD0FAFE" stroke="#BCD0FAFE">
<path d="M 147.619 231.153 C 147.137 233.565 147.636 235.385 149.744 238.903 L 152.500 243.500 152.799 236.590 C 153.010 231.737 152.712 229.434 151.799 228.855 C 149.411 227.340 148.255 227.975 147.619 231.153 "/></g>
<g fill="#FE7062FE" stroke="#FE7062FE">
<path d="M 455.026 86.849 C 450.606 87.472 444.185 92.948 442.403 97.614 C 440.765 101.903 441.002 105.000 442.969 105.000 C 443.536 105.000 444.000 103.671 444.000 102.047 C 444.000 100.423 444.487 98.024 445.083 96.716 C 446.340 93.959 453.531 89.000 456.273 89.000 C 457.304 89.000 458.001 88.438 457.823 87.750 C 457.641 87.045 456.422 86.652 455.026 86.849 "/></g>
<g fill="#BCD0FAFE" stroke="#BCD0FAFE">
<path d="M 250.685 322.738 L 245.870 323.115 246.559 328.807 C 247.507 336.649 248.080 337.139 255.907 336.792 L 262.500 336.500 262.766 330.000 C 262.919 326.263 262.677 324.039 262.196 324.769 C 261.735 325.466 261.456 327.813 261.574 329.983 C 261.853 335.090 260.401 336.181 253.831 335.805 L 248.500 335.500 248.366 332.000 C 248.292 330.075 248.126 328.050 247.997 327.500 C 247.338 324.687 248.210 324.000 252.441 324.000 C 254.884 324.000 257.160 323.550 257.500 323.000 C 257.840 322.450 257.529 322.081 256.809 322.180 C 256.089 322.279 253.333 322.530 250.685 322.738 "/></g>
<g fill="#FE928EFE" stroke="#FE928EFE">
<path d="M 257.092 300.747 L 254.793 305.479 252.609 302.739 C 250.146 299.650 249.000 299.272 249.000 301.550 C 249.000 304.357 252.017 309.000 253.842 309.000 C 255.952 309.000 260.471 301.571 259.407 299.850 C 258.962 299.130 259.129 298.962 259.845 299.405 C 261.167 300.221 261.344 299.089 260.180 297.258 C 259.653 296.428 258.628 297.586 257.092 300.747 "/></g>
</svg>
